<svg width="243" height="17" viewBox="0 0 243 17" fill="none" xmlns="http://www.w3.org/2000/svg">
<g clip-path="url(#clip0_2_40)">
<path d="M241.868 4.37644C241.755 3.04645 240.756 1.99464 239.495 1.88062C238.035 1.75283 235.873 1.61914 233.204 1.61914C229.99 1.61914 227.563 1.75774 225.995 1.8875C224.729 1.99464 223.721 3.05038 223.608 4.38627C223.512 5.45281 223.429 6.86144 223.429 8.54138C223.429 10.18 223.512 11.5641 223.607 12.6169C223.72 13.9508 224.728 15.0046 225.993 15.1117C227.562 15.2424 229.988 15.381 233.204 15.381C235.873 15.381 238.035 15.2474 239.495 15.1196C240.756 15.0055 241.755 13.9528 241.868 12.6237C241.964 11.5621 242.048 10.1623 242.048 8.50009C242.048 6.83687 241.964 5.43807 241.868 4.37644ZM230.668 11.3891V5.61108L236.065 8.50009L230.668 11.3891Z" fill="white"/>
</g>
<path d="M6.47619 6.07502H4.27044V4.6467C4.27044 4.11001 4.63047 3.98524 4.88404 3.98524C5.13704 3.98524 6.44071 3.98524 6.44071 3.98524V1.62712L4.29698 1.61914C1.91756 1.61914 1.37607 3.37791 1.37607 4.50341V6.07531H0V8.50522H1.37607C1.37607 11.6234 1.37607 15.381 1.37607 15.381H4.27044C4.27044 15.381 4.27044 11.5866 4.27044 8.50522H6.22377L6.47619 6.07502Z" fill="white"/>
<path d="M194.814 5.75682L187.406 1.79094C187.021 1.58473 186.604 1.57417 186.242 1.7059L192.554 8.01724L194.814 5.75682Z" fill="white"/>
<path d="M197.577 7.23555L195.443 6.09338L193.037 8.49998L195.443 10.9063L197.577 9.76414C198.587 9.22307 198.587 7.77606 197.577 7.23555Z" fill="white"/>
<path d="M185.665 2.09338C185.438 2.3421 185.296 2.67419 185.296 3.05491V13.9452C185.296 14.3256 185.439 14.6574 185.665 14.9067L192.072 8.50032L185.665 2.09338Z" fill="white"/>
<path d="M186.242 15.2939C186.603 15.4259 187.021 15.4156 187.406 15.2089L194.814 11.243L192.554 8.9823L186.242 15.2939Z" fill="white"/>
<path d="M85.8097 3.15241C85.2442 3.41286 84.6357 3.58854 83.9972 3.66717C84.6491 3.26274 85.149 2.62212 85.3847 1.85792C84.775 2.2329 84.0999 2.505 83.3809 2.65189C82.8052 2.01645 81.985 1.61914 81.0776 1.61914C79.3351 1.61914 77.9223 3.08317 77.9223 4.88919C77.9223 5.14511 77.9501 5.39456 78.0041 5.6343C75.3818 5.49777 73.0561 4.19616 71.4996 2.21737C71.228 2.7001 71.0728 3.26209 71.0728 3.86161C71.0728 4.99628 71.6295 5.99732 72.4763 6.58325C71.9595 6.56611 71.4725 6.41889 71.0472 6.17397C71.0469 6.18756 71.0469 6.20147 71.0469 6.21539C71.0469 7.79945 72.1344 9.1208 73.5781 9.42169C73.3133 9.49579 73.0345 9.53623 72.7466 9.53623C72.5434 9.53623 72.3454 9.51584 72.1531 9.47734C72.5546 10.7764 73.7201 11.7221 75.1005 11.7483C74.0205 12.6254 72.6605 13.1483 71.1815 13.1483C70.927 13.1483 70.6757 13.1327 70.4287 13.1023C71.8256 14.0306 73.4841 14.5715 75.266 14.5715C81.0705 14.5715 84.2442 9.58897 84.2442 5.26773C84.2442 5.12602 84.2414 4.98463 84.2354 4.84389C84.8518 4.38446 85.3869 3.80823 85.8097 3.15241Z" fill="white"/>
<path d="M34.8094 6.47644H31.5713V15.3812H34.8094V6.47644Z" fill="white"/>
<path d="M33.1903 4.85724C34.0845 4.85724 34.8094 4.13236 34.8094 3.23819C34.8094 2.34401 34.0845 1.61914 33.1903 1.61914C32.2962 1.61914 31.5713 2.34401 31.5713 3.23819C31.5713 4.13236 32.2962 4.85724 33.1903 4.85724Z" fill="white"/>
<path d="M42.5001 5.86914C41.3951 5.87238 40.3517 6.37995 39.6668 7.24857V6.47628H36.4287V15.381H39.6668V9.71438C39.6668 8.82066 40.3921 8.09533 41.2859 8.09533C42.1796 8.09533 42.9049 8.82066 42.9049 9.71438V15.381H46.143V9.512C46.143 7.50033 44.5118 5.86914 42.5001 5.86914Z" fill="white"/>
<path d="M123.807 1.61914H111.765C111.289 1.61914 110.905 2.00383 110.905 2.47926V14.5209C110.905 14.9964 111.289 15.381 111.765 15.381H123.807C124.282 15.381 124.667 14.9963 124.667 14.5209V2.47926C124.667 2.00383 124.282 1.61914 123.807 1.61914ZM116.065 8.50009C116.065 8.50009 116.202 6.77985 117.786 6.77985C119.37 6.77985 119.506 8.50009 119.506 8.50009C119.506 8.50009 119.556 10.2203 117.786 10.2203C116.016 10.2203 116.065 8.50009 116.065 8.50009ZM122.946 13.6608H112.625V7.63997H114.345H114.467C114.396 7.91631 114.345 8.20107 114.345 8.50009C114.345 10.4001 115.886 11.9406 117.786 11.9406C119.686 11.9406 121.226 10.4001 121.226 8.50009C121.226 8.20107 121.176 7.91631 121.104 7.63997H121.226H122.946V13.6608ZM122.946 5.91974H120.366V3.33938H122.946V5.91974Z" fill="white"/>
<path d="M157.802 4.84021C156.598 4.84021 156.089 5.43138 155.251 5.43138C154.391 5.43138 153.735 4.84379 152.693 4.84379C151.672 4.84379 150.582 5.48512 149.891 6.57788C148.92 8.1185 149.085 11.0206 150.658 13.4927C151.22 14.3777 151.972 15.3701 152.958 15.3809C152.965 15.3809 152.968 15.3809 152.976 15.3809C153.832 15.3809 154.086 14.804 155.265 14.7969C155.272 14.7969 155.276 14.7969 155.283 14.7969C156.444 14.7969 156.677 15.3773 157.529 15.3773C157.537 15.3773 157.54 15.3773 157.547 15.3773C158.533 15.3665 159.324 14.2666 159.887 13.3852C160.292 12.7511 160.442 12.4322 160.754 11.7156C158.479 10.8271 158.113 7.50935 160.363 6.23744C159.676 5.35255 158.712 4.84021 157.802 4.84021Z" fill="white"/>
<path d="M157.537 1.61914C156.82 1.6693 155.985 2.13865 155.494 2.75132C155.05 3.30665 154.685 4.1307 154.828 4.92968C154.846 4.92968 154.864 4.92968 154.885 4.92968C155.648 4.92968 156.43 4.45674 156.885 3.85124C157.325 3.27441 157.658 2.45752 157.537 1.61914Z" fill="white"/>
<rect x="18.6191" width="0.809524" height="17" fill="#C4C4C4"/>
<rect x="58.2861" width="0.809524" height="17" fill="#C4C4C4"/>
<rect x="97.9521" width="0.809524" height="17" fill="#C4C4C4"/>
<rect x="136.81" width="0.809524" height="17" fill="#C4C4C4"/>
<rect x="172.429" width="0.809524" height="17" fill="#C4C4C4"/>
<rect x="210.477" width="0.809524" height="17" fill="#C4C4C4"/>
<defs>
<clipPath id="clip0_2_40">
<rect width="18.619" height="13.7619" fill="white" transform="translate(223.429 1.61914)"/>
</clipPath>
</defs>
</svg>
