<svg width="243" height="17" viewBox="0 0 243 17" fill="none" xmlns="http://www.w3.org/2000/svg">
<g clip-path="url(#clip0_62_5866)">
<path d="M241.868 4.37644C241.755 3.04645 240.756 1.99464 239.495 1.88062C238.035 1.75283 235.873 1.61914 233.204 1.61914C229.99 1.61914 227.563 1.75774 225.995 1.8875C224.729 1.99464 223.721 3.05038 223.608 4.38627C223.512 5.45281 223.429 6.86144 223.429 8.54138C223.429 10.18 223.512 11.5641 223.607 12.6169C223.72 13.9508 224.728 15.0046 225.993 15.1117C227.562 15.2424 229.988 15.381 233.204 15.381C235.873 15.381 238.035 15.2474 239.495 15.1196C240.756 15.0055 241.755 13.9528 241.868 12.6237C241.964 11.5621 242.048 10.1623 242.048 8.50009C242.048 6.83687 241.964 5.43807 241.868 4.37644ZM230.668 11.3891V5.61108L236.065 8.50009L230.668 11.3891Z" fill="white"/>
</g>
<path d="M6.47619 6.07502H4.27044V4.6467C4.27044 4.11001 4.63047 3.98524 4.88404 3.98524C5.13704 3.98524 6.44071 3.98524 6.44071 3.98524V1.62712L4.29698 1.61914C1.91756 1.61914 1.37607 3.37791 1.37607 4.50341V6.07531H0V8.50522H1.37607C1.37607 11.6234 1.37607 15.381 1.37607 15.381H4.27044C4.27044 15.381 4.27044 11.5866 4.27044 8.50522H6.22377L6.47619 6.07502Z" fill="white"/>
<path d="M194.814 5.75682L187.406 1.79094C187.021 1.58473 186.604 1.57417 186.242 1.7059L192.554 8.01724L194.814 5.75682Z" fill="white"/>
<path d="M197.576 7.23542L195.442 6.09326L193.036 8.49986L195.442 10.9062L197.576 9.76402C198.586 9.22295 198.586 7.77593 197.576 7.23542Z" fill="white"/>
<path d="M185.665 2.09326C185.438 2.34198 185.296 2.67407 185.296 3.05479V13.9451C185.296 14.3255 185.439 14.6573 185.665 14.9066L192.072 8.5002L185.665 2.09326Z" fill="white"/>
<path d="M186.242 15.294C186.603 15.426 187.021 15.4158 187.406 15.209L194.814 11.2431L192.554 8.98242L186.242 15.294Z" fill="white"/>
<path d="M85.8097 3.15241C85.2442 3.41286 84.6357 3.58854 83.9972 3.66717C84.6491 3.26274 85.149 2.62212 85.3847 1.85792C84.775 2.2329 84.0999 2.505 83.3809 2.65189C82.8052 2.01645 81.985 1.61914 81.0776 1.61914C79.3351 1.61914 77.9223 3.08317 77.9223 4.88919C77.9223 5.14511 77.9501 5.39456 78.0041 5.6343C75.3818 5.49777 73.0561 4.19616 71.4996 2.21737C71.228 2.7001 71.0728 3.26209 71.0728 3.86161C71.0728 4.99628 71.6295 5.99732 72.4763 6.58325C71.9595 6.56611 71.4725 6.41889 71.0472 6.17397C71.0469 6.18756 71.0469 6.20147 71.0469 6.21539C71.0469 7.79945 72.1344 9.1208 73.5781 9.42169C73.3133 9.49579 73.0345 9.53623 72.7466 9.53623C72.5434 9.53623 72.3454 9.51584 72.1531 9.47734C72.5546 10.7764 73.7201 11.7221 75.1005 11.7483C74.0205 12.6254 72.6605 13.1483 71.1815 13.1483C70.927 13.1483 70.6757 13.1327 70.4287 13.1023C71.8256 14.0306 73.4841 14.5715 75.266 14.5715C81.0705 14.5715 84.2442 9.58897 84.2442 5.26773C84.2442 5.12602 84.2414 4.98463 84.2354 4.84389C84.8518 4.38446 85.3869 3.80823 85.8097 3.15241Z" fill="white"/>
<path d="M34.8094 6.47644H31.5713V15.3812H34.8094V6.47644Z" fill="white"/>
<path d="M33.1903 4.85724C34.0845 4.85724 34.8094 4.13236 34.8094 3.23819C34.8094 2.34401 34.0845 1.61914 33.1903 1.61914C32.2962 1.61914 31.5713 2.34401 31.5713 3.23819C31.5713 4.13236 32.2962 4.85724 33.1903 4.85724Z" fill="white"/>
<path d="M42.5001 5.86914C41.3951 5.87238 40.3517 6.37995 39.6668 7.24857V6.47628H36.4287V15.381H39.6668V9.71438C39.6668 8.82066 40.3921 8.09533 41.2859 8.09533C42.1796 8.09533 42.9049 8.82066 42.9049 9.71438V15.381H46.143V9.512C46.143 7.50033 44.5118 5.86914 42.5001 5.86914Z" fill="white"/>
<path d="M123.806 1.61914H111.764C111.289 1.61914 110.904 2.00383 110.904 2.47926V14.5209C110.904 14.9964 111.289 15.381 111.764 15.381H123.806C124.282 15.381 124.666 14.9963 124.666 14.5209V2.47926C124.666 2.00383 124.282 1.61914 123.806 1.61914ZM116.065 8.50009C116.065 8.50009 116.201 6.77985 117.785 6.77985C119.369 6.77985 119.505 8.50009 119.505 8.50009C119.505 8.50009 119.555 10.2203 117.785 10.2203C116.015 10.2203 116.065 8.50009 116.065 8.50009ZM122.946 13.6608H112.625V7.63997H114.345H114.467C114.395 7.91631 114.345 8.20107 114.345 8.50009C114.345 10.4001 115.885 11.9406 117.785 11.9406C119.685 11.9406 121.226 10.4001 121.226 8.50009C121.226 8.20107 121.175 7.91631 121.104 7.63997H121.226H122.946V13.6608ZM122.946 5.91974H120.366V3.33938H122.946V5.91974Z" fill="white"/>
<path d="M157.802 4.84033C156.598 4.84033 156.089 5.4315 155.251 5.4315C154.391 5.4315 153.735 4.84392 152.693 4.84392C151.672 4.84392 150.582 5.48524 149.891 6.57801C148.92 8.11862 149.085 11.0207 150.658 13.4929C151.22 14.3778 151.972 15.3702 152.958 15.381C152.965 15.381 152.968 15.381 152.976 15.381C153.832 15.381 154.086 14.8042 155.265 14.797C155.272 14.797 155.276 14.797 155.283 14.797C156.444 14.797 156.677 15.3774 157.529 15.3774C157.537 15.3774 157.54 15.3774 157.547 15.3774C158.533 15.3667 159.324 14.2667 159.887 13.3853C160.292 12.7512 160.442 12.4323 160.754 11.7157C158.479 10.8272 158.113 7.50947 160.363 6.23756C159.676 5.35268 158.712 4.84033 157.802 4.84033Z" fill="white"/>
<path d="M157.536 1.61914C156.82 1.6693 155.985 2.13865 155.494 2.75132C155.05 3.30665 154.684 4.1307 154.827 4.92968C154.845 4.92968 154.863 4.92968 154.885 4.92968C155.648 4.92968 156.429 4.45674 156.884 3.85124C157.325 3.27441 157.658 2.45752 157.536 1.61914Z" fill="white"/>
<rect x="18.6191" width="0.809524" height="17" fill="#C4C4C4"/>
<rect x="58.2861" width="0.809524" height="17" fill="#C4C4C4"/>
<rect x="97.9521" width="0.809524" height="17" fill="#C4C4C4"/>
<rect x="136.81" width="0.809524" height="17" fill="#C4C4C4"/>
<rect x="172.429" width="0.809524" height="17" fill="#C4C4C4"/>
<rect x="210.477" width="0.809524" height="17" fill="#C4C4C4"/>
<defs>
<clipPath id="clip0_62_5866">
<rect width="18.619" height="13.7619" fill="white" transform="translate(223.429 1.61914)"/>
</clipPath>
</defs>
</svg>
