<svg width="12" height="16" viewBox="0 0 12 16" fill="none" xmlns="http://www.w3.org/2000/svg">
<path fill-rule="evenodd" clip-rule="evenodd" d="M6 16C4.01 16 0 9.51386 0 5.98168C0 2.67809 2.68629 0 6 0C9.31371 0 12 2.67809 12 5.98168C12 9.51386 7.99 16 6 16ZM6 2.02779C3.8016 2.02171 2.01267 3.79002 2 5.98168C2.20338 7.89081 2.88117 9.71923 3.972 11.3014C4.43067 12.0565 4.95395 12.7706 5.536 13.4359C5.772 13.6871 6 13.8925 6 13.8925C6 13.8925 6.231 13.6931 6.465 13.4359C7.04701 12.7708 7.56998 12.0567 8.028 11.3014C9.11883 9.71923 9.79662 7.89081 10 5.98168C9.98733 3.79002 8.1984 2.02171 6 2.02779ZM6.00032 8.02452C4.90521 8.01682 4.02302 7.1268 4.02834 6.03501C4.03367 4.94323 4.92449 4.06179 6.01962 4.0647C7.11476 4.06762 8.00084 4.95379 8.00032 6.04558C7.99847 6.57245 7.78668 7.077 7.41158 7.44815C7.03648 7.8193 6.52881 8.02664 6.00032 8.02452Z" fill="#5C5C5C"/>
</svg>
