<svg width="676" height="525" viewBox="0 0 676 525" fill="none" xmlns="http://www.w3.org/2000/svg">
<g opacity="0.9">
<path d="M175.659 427.425H120.911V443.355H175.659V427.425Z" fill="#F4F4F4"/>
<path opacity="0.05" d="M135.437 427.425H128.264V443.355H135.437V427.425Z" fill="#292A2E"/>
<path d="M168.663 430.887H138.835V440.327H168.663V430.887Z" fill="white"/>
<path d="M219.33 429.504L168.46 407.285L162.084 421.883L212.954 444.102L219.33 429.504Z" fill="#F4F4F4"/>
<path opacity="0.05" d="M219.33 429.504L168.46 407.285L162.084 421.883L212.954 444.102L219.33 429.504Z" fill="#292A2E"/>
<path d="M212.499 426.52L205.833 423.608L199.457 438.207L206.123 441.118L212.499 426.52Z" fill="white"/>
<path d="M201.29 425.402L173.575 413.297L169.796 421.948L197.512 434.053L201.29 425.402Z" fill="white"/>
<path d="M232.037 444.102H52.3911V628.913H232.037V444.102Z" fill="#F4F4F4"/>
<path opacity="0.03" d="M232.037 444.102H52.3911V628.913H232.037V444.102Z" fill="#292A2E"/>
<path d="M265.328 444.102H85.6821V628.912H265.328V444.102Z" fill="#F4F4F4"/>
<path opacity="0.7" d="M258.584 452.757H92.4251V488.263H258.584V452.757Z" fill="white"/>
<path opacity="0.7" d="M258.584 496.954H92.4251V532.46H258.584V496.954Z" fill="white"/>
<path opacity="0.05" d="M175.505 475.478C178.249 475.478 180.473 473.254 180.473 470.51C180.473 467.766 178.249 465.542 175.505 465.542C172.762 465.542 170.537 467.766 170.537 470.51C170.537 473.254 172.762 475.478 175.505 475.478Z" fill="#292A2E"/>
<path opacity="0.05" d="M175.505 519.675C178.249 519.675 180.473 517.451 180.473 514.707C180.473 511.963 178.249 509.739 175.505 509.739C172.762 509.739 170.537 511.963 170.537 514.707C170.537 517.451 172.762 519.675 175.505 519.675Z" fill="#292A2E"/>
<path d="M629.844 639.407L631.182 639.15L610.26 431.248L608.922 431.506L629.844 639.407Z" fill="#494949"/>
<path d="M551.941 639.407L553.28 639.15L532.359 431.248L531.02 431.506L551.941 639.407Z" fill="#494949"/>
<path d="M379.742 639.407L378.403 639.149L399.325 431.248L400.663 431.505L379.742 639.407Z" fill="#494949"/>
<path d="M457.645 639.407L456.306 639.149L477.227 431.248L478.566 431.505L457.645 639.407Z" fill="#494949"/>
<path d="M485.384 339.744L473.162 431.282L474.513 431.463L486.735 339.924L485.384 339.744Z" fill="#494949"/>
<path d="M625.668 339.744L613.446 431.282L614.797 431.463L627.019 339.924L625.668 339.744Z" fill="#494949"/>
<path d="M473.285 438.08H610.5C614.202 438.08 617.203 435.079 617.203 431.377V431.376C617.203 427.674 614.202 424.673 610.5 424.673H473.285C469.583 424.673 466.581 427.674 466.581 431.376V431.377C466.581 435.079 469.583 438.08 473.285 438.08Z" fill="#292A2E"/>
<path opacity="0.8" d="M473.285 438.08H610.5C614.202 438.08 617.203 435.079 617.203 431.377V431.376C617.203 427.674 614.202 424.673 610.5 424.673H473.285C469.583 424.673 466.581 427.674 466.581 431.376V431.377C466.581 435.079 469.583 438.08 473.285 438.08Z" fill="white"/>
<path d="M465.9 431.38C465.902 429.421 466.68 427.544 468.065 426.159C469.449 424.774 471.327 423.994 473.285 423.992H610.5C612.458 423.992 614.337 424.77 615.722 426.155C617.107 427.54 617.885 429.418 617.885 431.377C617.885 433.336 617.107 435.214 615.722 436.599C614.337 437.984 612.458 438.762 610.5 438.762H473.285C471.328 438.76 469.451 437.981 468.067 436.597C466.682 435.214 465.903 433.337 465.9 431.38ZM473.285 425.358C471.688 425.358 470.156 425.993 469.027 427.122C467.898 428.251 467.263 429.783 467.263 431.38C467.263 432.977 467.898 434.508 469.027 435.638C470.156 436.767 471.688 437.402 473.285 437.402H610.5C612.097 437.402 613.629 436.767 614.758 435.638C615.887 434.508 616.522 432.977 616.522 431.38C616.522 429.783 615.887 428.251 614.758 427.122C613.629 425.993 612.097 425.358 610.5 425.358H473.285Z" fill="#292A2E"/>
<path d="M397.974 438.08H535.189C538.891 438.08 541.892 435.079 541.892 431.377V431.376C541.892 427.674 538.891 424.673 535.189 424.673H397.974C394.272 424.673 391.271 427.674 391.271 431.376V431.377C391.271 435.079 394.272 438.08 397.974 438.08Z" fill="white"/>
<path d="M390.589 431.38C390.591 429.422 391.37 427.545 392.754 426.16C394.139 424.776 396.016 423.997 397.974 423.995H535.189C537.148 423.995 539.026 424.773 540.411 426.158C541.796 427.543 542.574 429.421 542.574 431.38C542.574 433.338 541.796 435.217 540.411 436.602C539.026 437.987 537.148 438.765 535.189 438.765H397.974C396.016 438.762 394.139 437.983 392.755 436.599C391.37 435.215 390.591 433.338 390.589 431.38ZM397.974 425.358C396.377 425.358 394.845 425.992 393.716 427.122C392.587 428.251 391.952 429.783 391.952 431.38C391.952 432.977 392.587 434.508 393.716 435.638C394.845 436.767 396.377 437.401 397.974 437.401H535.189C536.786 437.401 538.318 436.767 539.447 435.638C540.576 434.508 541.211 432.977 541.211 431.38C541.211 429.783 540.576 428.251 539.447 427.122C538.318 425.992 536.786 425.358 535.189 425.358H397.974Z" fill="#292A2E"/>
<path d="M492.906 339.838H625.982C628.157 339.838 630.259 339.046 631.893 337.611C633.528 336.175 634.585 334.194 634.866 332.036L643.668 264.437C643.832 263.174 643.726 261.89 643.354 260.671C642.983 259.452 642.356 258.326 641.516 257.369C640.675 256.411 639.639 255.644 638.479 255.119C637.318 254.593 636.058 254.322 634.784 254.322H501.706C499.53 254.322 497.429 255.114 495.794 256.549C494.159 257.985 493.103 259.967 492.821 262.124L484.019 329.722C483.854 330.986 483.961 332.27 484.333 333.489C484.704 334.709 485.331 335.834 486.172 336.792C487.014 337.749 488.049 338.516 489.211 339.042C490.372 339.567 491.632 339.838 492.906 339.838Z" fill="#292A2E"/>
<path opacity="0.8" d="M492.906 339.838H625.982C628.157 339.838 630.259 339.046 631.893 337.611C633.528 336.175 634.585 334.194 634.866 332.036L643.668 264.437C643.832 263.174 643.726 261.89 643.354 260.671C642.983 259.452 642.356 258.326 641.516 257.369C640.675 256.411 639.639 255.644 638.479 255.119C637.318 254.593 636.058 254.322 634.784 254.322H501.706C499.53 254.322 497.429 255.114 495.794 256.549C494.159 257.985 493.103 259.967 492.821 262.124L484.019 329.722C483.854 330.986 483.961 332.27 484.333 333.489C484.704 334.709 485.331 335.834 486.172 336.792C487.014 337.749 488.049 338.516 489.211 339.042C490.372 339.567 491.632 339.838 492.906 339.838Z" fill="white"/>
<path d="M485.662 337.241C484.757 336.211 484.083 334.999 483.683 333.688C483.283 332.376 483.168 330.994 483.345 329.635L492.147 262.036C492.455 259.717 493.593 257.588 495.35 256.043C497.108 254.499 499.366 253.645 501.706 253.64H634.784C636.155 253.64 637.511 253.932 638.76 254.498C640.009 255.063 641.123 255.889 642.028 256.919C642.933 257.949 643.607 259.16 644.007 260.472C644.406 261.784 644.521 263.166 644.344 264.525L635.541 332.124C635.234 334.444 634.096 336.573 632.338 338.117C630.58 339.661 628.321 340.515 625.982 340.52H492.906C491.535 340.52 490.18 340.227 488.93 339.662C487.681 339.096 486.567 338.271 485.662 337.241ZM501.706 255.003C499.697 255.008 497.759 255.742 496.25 257.067C494.741 258.393 493.764 260.221 493.5 262.213L484.698 329.811C484.546 330.979 484.645 332.165 484.988 333.291C485.331 334.418 485.91 335.458 486.687 336.342C487.463 337.227 488.42 337.935 489.493 338.421C490.565 338.906 491.729 339.157 492.906 339.157H625.982C627.991 339.153 629.93 338.42 631.439 337.094C632.949 335.769 633.926 333.94 634.19 331.949L642.992 264.35C643.144 263.183 643.045 261.996 642.702 260.87C642.359 259.744 641.78 258.704 641.003 257.819C640.227 256.935 639.27 256.226 638.198 255.74C637.125 255.255 635.961 255.004 634.784 255.004L501.706 255.003Z" fill="#292A2E"/>
<path d="M485.382 339.838H618.461C620.637 339.838 622.738 339.046 624.373 337.611C626.008 336.175 627.064 334.194 627.345 332.036L636.148 264.437C636.312 263.174 636.205 261.89 635.834 260.671C635.463 259.452 634.836 258.326 633.995 257.369C633.154 256.411 632.119 255.644 630.958 255.119C629.797 254.593 628.538 254.322 627.263 254.322H494.184C492.009 254.322 489.907 255.114 488.273 256.549C486.638 257.985 485.582 259.967 485.301 262.124L476.498 329.722C476.334 330.986 476.44 332.27 476.812 333.489C477.183 334.708 477.81 335.833 478.65 336.791C479.491 337.748 480.526 338.515 481.687 339.041C482.848 339.566 484.108 339.838 485.382 339.838Z" fill="white"/>
<path d="M478.139 337.241C477.234 336.21 476.559 334.999 476.159 333.688C475.76 332.376 475.645 330.994 475.821 329.635L484.624 262.036C484.931 259.717 486.069 257.587 487.827 256.043C489.585 254.499 491.844 253.645 494.184 253.64H627.26C628.632 253.64 629.987 253.932 631.236 254.498C632.485 255.063 633.599 255.889 634.504 256.919C635.409 257.949 636.084 259.16 636.483 260.472C636.882 261.784 636.997 263.166 636.82 264.525L628.018 332.124C627.711 334.443 626.573 336.572 624.816 338.116C623.058 339.66 620.801 340.514 618.461 340.52H485.382C484.011 340.52 482.656 340.227 481.407 339.662C480.158 339.096 479.043 338.271 478.139 337.241ZM494.185 255.003C492.176 255.008 490.237 255.741 488.727 257.067C487.218 258.393 486.241 260.221 485.977 262.213L477.174 329.811C477.022 330.979 477.121 332.165 477.464 333.291C477.807 334.418 478.386 335.458 479.163 336.342C479.94 337.227 480.896 337.935 481.969 338.421C483.041 338.906 484.205 339.157 485.382 339.157H618.461C620.47 339.153 622.41 338.42 623.919 337.094C625.429 335.769 626.406 333.94 626.67 331.949L635.472 264.351C635.624 263.183 635.525 261.997 635.182 260.871C634.839 259.744 634.26 258.704 633.483 257.82C632.706 256.935 631.75 256.226 630.677 255.741C629.605 255.255 628.441 255.004 627.264 255.004L494.185 255.003Z" fill="#292A2E"/>
<path d="M504.279 145.495C504.279 145.495 496.423 137.682 496.338 122.163C496.27 110.147 506.097 119.271 506.097 119.271C506.097 119.271 506.133 110.618 512.207 112.31C518.281 114.002 520.528 123.403 520.528 123.403" fill="#0C0C0C"/>
<path d="M544.074 117.689C544.074 117.689 574.344 125.19 557.536 165.298L554.793 165.108L549.224 164.722" fill="#0C0C0C"/>
<path d="M505.222 206.982C505.358 206.964 506.871 232.064 536.033 229.877C556.222 228.365 563.42 206.946 563.882 206.946C561.706 206.484 559.016 205.782 557.947 205.54C555.617 204.999 553.508 203.762 551.899 201.992C550.291 200.223 549.258 198.006 548.94 195.636C548.349 192.078 549.349 173.874 549.043 170.274L518.054 177.192C518.487 184.795 521.518 202.421 510.897 205.54C509.125 206.056 507.221 206.529 505.222 206.982Z" fill="#E98862"/>
<path opacity="0.52" d="M517.616 198.337C518.102 196.773 518.415 195.16 518.549 193.527C518.889 189.802 518.82 186.051 518.344 182.341C524.643 181.491 530.577 178.891 535.472 174.837C536.047 176.962 539.211 186.248 538.334 188.264C536.681 192.086 528.898 198.337 517.616 198.337Z" fill="#0C0C0C"/>
<path d="M522.251 191.016C534.512 191.589 550.059 185.921 552.519 169.508L554.74 154.698C557.201 138.285 550.575 123.687 535.122 121.369C519.669 119.052 506.122 130.626 503.661 147.039L502.678 153.595C502.379 155.852 502.235 158.127 502.246 160.404C502.231 166.421 502.231 175.573 505.409 182.199C508.409 188.455 514.417 190.648 522.251 191.016Z" fill="#E98862"/>
<path d="M518.69 175.217C516.175 174.988 513.749 174.171 511.607 172.832C511.561 172.806 511.52 172.772 511.487 172.73C511.454 172.688 511.43 172.64 511.416 172.589C511.402 172.538 511.398 172.484 511.406 172.432C511.413 172.379 511.431 172.328 511.458 172.283C511.485 172.237 511.521 172.198 511.564 172.166C511.607 172.135 511.656 172.113 511.708 172.101C511.76 172.089 511.813 172.088 511.866 172.097C511.918 172.106 511.968 172.126 512.012 172.155C516.642 174.926 521.145 175.23 525.043 173.036C525.122 172.989 525.203 172.947 525.287 172.909C525.383 172.873 525.489 172.877 525.583 172.918C525.677 172.96 525.751 173.036 525.789 173.131C525.828 173.226 525.827 173.332 525.789 173.428C525.75 173.523 525.676 173.599 525.583 173.64C525.552 173.654 525.501 173.684 525.431 173.723C523.382 174.881 521.035 175.401 518.69 175.217Z" fill="#0C0C0C"/>
<path d="M518.299 178.938C517.844 178.903 517.392 178.83 516.949 178.719C516.899 178.707 516.852 178.685 516.81 178.654C516.768 178.623 516.733 178.585 516.706 178.541C516.679 178.496 516.662 178.447 516.654 178.396C516.646 178.345 516.648 178.293 516.661 178.242C516.673 178.192 516.695 178.145 516.726 178.103C516.757 178.061 516.795 178.026 516.84 177.999C516.884 177.973 516.933 177.955 516.984 177.947C517.035 177.939 517.088 177.942 517.138 177.954C519.804 178.612 521.265 177.549 521.327 177.503C521.41 177.44 521.515 177.413 521.619 177.427C521.722 177.441 521.816 177.496 521.879 177.579C521.943 177.662 521.97 177.767 521.956 177.871C521.942 177.974 521.887 178.068 521.804 178.131C520.764 178.797 519.526 179.082 518.299 178.938Z" fill="#0C0C0C"/>
<path d="M508.068 154.203C509.131 154.203 509.993 153.342 509.993 152.279C509.993 151.216 509.131 150.354 508.068 150.354C507.005 150.354 506.144 151.216 506.144 152.279C506.144 153.342 507.005 154.203 508.068 154.203Z" fill="#0C0C0C"/>
<path d="M525.966 155.397C527.029 155.397 527.89 154.535 527.89 153.472C527.89 152.409 527.029 151.547 525.966 151.547C524.903 151.547 524.041 152.409 524.041 153.472C524.041 154.535 524.903 155.397 525.966 155.397Z" fill="#0C0C0C"/>
<path d="M550.809 174.364C555.505 175.068 560.067 170.616 560.771 165.919C561.475 161.222 558.056 158.062 553.36 157.358L550.468 160.141L546.772 173.759L550.809 174.364Z" fill="#E98862"/>
<path d="M547.164 166.164C547.164 166.164 548.762 142.681 541.904 140.278C537.338 138.677 525.031 143.782 514.753 140.323C510.254 138.81 505.717 139.353 504.972 141.472C504.678 142.311 503.5 129.509 512.021 121.081C518.804 114.371 537.933 114.834 546.168 118.467C568.966 128.526 554.19 158.515 554.19 158.515L552.033 166.391L547.164 166.164Z" fill="#0C0C0C"/>
<path d="M516.597 169.337H516.567C515.053 169.114 512.538 168.572 512.704 167.439C512.84 166.5 516.903 156.748 517.367 155.64C517.385 155.591 517.413 155.546 517.449 155.508C517.485 155.47 517.528 155.439 517.577 155.418C517.625 155.397 517.677 155.386 517.729 155.386C517.782 155.385 517.834 155.396 517.882 155.416C517.931 155.436 517.975 155.466 518.011 155.503C518.048 155.541 518.077 155.586 518.096 155.635C518.115 155.684 518.124 155.736 518.122 155.788C518.12 155.841 518.108 155.892 518.086 155.94C516.284 160.258 513.57 166.913 513.476 167.552C513.585 167.842 515.111 168.334 516.679 168.566C516.778 168.582 516.867 168.635 516.927 168.714C516.988 168.794 517.016 168.893 517.005 168.993C516.995 169.092 516.946 169.184 516.87 169.248C516.794 169.313 516.696 169.346 516.596 169.34L516.597 169.337Z" fill="#0C0C0C"/>
<path d="M514.531 145.964C512.997 145.308 511.315 145.078 509.662 145.299C508.85 145.403 508.059 145.627 507.314 145.965C506.578 146.296 505.887 146.718 505.257 147.222C505.142 147.311 505.065 147.442 505.043 147.586C505.021 147.73 505.055 147.878 505.139 147.997C505.223 148.117 505.349 148.2 505.493 148.228C505.636 148.257 505.785 148.229 505.908 148.151L505.947 148.126C506.521 147.723 507.143 147.395 507.798 147.148C508.443 146.902 509.121 146.755 509.809 146.711C511.167 146.616 512.525 146.88 513.748 147.477L513.799 147.503C514 147.607 514.234 147.626 514.449 147.558C514.665 147.489 514.844 147.337 514.948 147.136C515.051 146.935 515.071 146.701 515.002 146.485C514.933 146.27 514.781 146.091 514.58 145.987L514.531 145.964Z" fill="#0C0C0C"/>
<path d="M525.681 148.465C526.974 148.042 528.356 147.968 529.687 148.251C530.364 148.389 531.015 148.628 531.619 148.962C532.234 149.297 532.805 149.708 533.317 150.185L533.351 150.214C533.462 150.31 533.606 150.36 533.752 150.352C533.899 150.344 534.037 150.28 534.137 150.173C534.237 150.066 534.292 149.924 534.29 149.777C534.288 149.63 534.229 149.49 534.126 149.386C533.571 148.8 532.945 148.286 532.262 147.857C531.571 147.419 530.819 147.087 530.03 146.873C528.422 146.426 526.724 146.421 525.115 146.858C524.897 146.919 524.712 147.064 524.601 147.261C524.49 147.459 524.462 147.692 524.523 147.91C524.584 148.127 524.73 148.312 524.927 148.423C525.124 148.534 525.357 148.562 525.575 148.501L525.625 148.485L525.681 148.465Z" fill="#0C0C0C"/>
<path d="M528.326 123.423C530.099 118.445 528.794 113.432 525.412 112.227C522.029 111.023 517.85 114.082 516.077 119.061C514.304 124.04 515.609 129.052 518.991 130.257C522.374 131.462 526.553 128.402 528.326 123.423Z" fill="#0C0C0C"/>
<path d="M483.122 586.859L431.833 425.06H524.8C543.475 425.06 551.26 409.224 551.26 390.55C551.26 371.876 532.902 355.506 514.227 355.506H388.756C377.366 355.506 364.595 362.472 358.344 371.993C352.093 381.515 353.782 396.269 358.311 406.72L440.441 606.195" fill="#262626"/>
<path opacity="0.8" d="M483.122 586.859L431.833 425.06H524.8C543.475 425.06 551.26 409.224 551.26 390.55C551.26 371.876 532.902 355.506 514.227 355.506H388.756C377.366 355.506 364.595 362.472 358.344 371.993C352.093 381.515 353.782 396.269 358.311 406.72L440.441 606.195" fill="#0A0A0A"/>
<path d="M352.902 621.668L438.657 425.06L551.259 425.052C577.644 422.984 589.728 408.524 589.343 389.854C588.964 371.421 579.631 353.214 561.281 353.214H409.515C395.938 353.493 385.256 368.497 380.22 381.108L308.927 609.632" fill="#262626"/>
<path d="M597.025 353.44C597.025 353.44 602.026 386.051 594.099 404.181C584.204 426.816 547.107 425.053 547.107 425.053L549.197 353.215L597.025 353.44Z" fill="#262626"/>
<path d="M376.992 352.798L456.532 336.316C459.847 335.629 462.934 334.118 465.51 331.921C468.085 329.724 470.064 326.914 471.265 323.749L502.55 241.311C503.502 238.837 503.957 236.199 503.887 233.548C503.817 230.898 503.224 228.288 502.142 225.867C501.06 223.447 499.511 221.264 497.583 219.444C495.655 217.624 493.387 216.203 490.908 215.262C488.43 214.322 485.79 213.88 483.14 213.963C480.49 214.045 477.882 214.651 475.467 215.744C473.052 216.838 470.877 218.397 469.066 220.334C467.255 222.271 465.845 224.546 464.916 227.029L437.55 299.14L368.825 313.382C368.825 313.382 375.616 353.084 376.992 352.798Z" fill="#CDDEFF"/>
<path d="M468.992 262.245C469.91 273.037 476.421 340.361 477.307 353.653H596.972C597.66 341.665 599.892 290.767 602.5 267.324C604.988 244.953 605.891 232.187 603.025 225.236C597.969 212.974 585.317 208.562 574.418 207.087C567.764 206.187 557.755 205.54 557.755 205.54C557.755 205.54 556.908 222.682 536.7 223.636C509.192 224.931 511.029 205.538 510.893 205.538C506.437 205.538 482.179 208.779 476.114 212.732C467.547 218.316 465.015 225.926 464.915 232.917C464.8 240.969 467.947 250.007 468.992 262.245Z" fill="#CDDEFF"/>
<path d="M473.695 317.257H473.723C473.813 317.249 473.897 317.206 473.955 317.137C474.013 317.068 474.042 316.979 474.034 316.889L470.928 279.57C470.925 279.525 470.914 279.481 470.893 279.44C470.873 279.4 470.845 279.364 470.811 279.335C470.777 279.306 470.737 279.284 470.694 279.271C470.65 279.258 470.605 279.253 470.56 279.258C470.516 279.262 470.472 279.274 470.432 279.295C470.393 279.315 470.357 279.344 470.328 279.378C470.299 279.412 470.277 279.452 470.264 279.494C470.25 279.537 470.245 279.582 470.249 279.626L473.354 316.944C473.361 317.029 473.4 317.109 473.463 317.167C473.526 317.225 473.609 317.257 473.695 317.257Z" fill="#0C0C0C"/>
<path d="M416.699 339.654L390.442 258.941C389.981 257.523 389.083 256.287 387.877 255.41C386.671 254.533 385.218 254.061 383.727 254.06H276.749C275.634 254.06 274.535 254.324 273.541 254.83C272.548 255.337 271.688 256.071 271.033 256.973C270.378 257.875 269.945 258.92 269.771 260.021C269.597 261.123 269.686 262.25 270.031 263.31L296.289 344.025C296.75 345.443 297.648 346.679 298.855 347.556C300.062 348.432 301.515 348.904 303.007 348.904H409.981C411.096 348.904 412.195 348.64 413.189 348.134C414.183 347.627 415.042 346.893 415.697 345.991C416.353 345.089 416.785 344.044 416.959 342.943C417.133 341.841 417.044 340.714 416.699 339.654Z" fill="#292A2E"/>
<path d="M416.699 339.654L390.442 258.941C389.981 257.523 389.083 256.287 387.877 255.41C386.671 254.533 385.218 254.061 383.727 254.06H276.749C275.634 254.06 274.535 254.324 273.541 254.83C272.548 255.337 271.688 256.071 271.033 256.973C270.378 257.875 269.945 258.92 269.771 260.021C269.597 261.123 269.686 262.25 270.031 263.31L296.289 344.025C296.75 345.443 297.648 346.679 298.855 347.556C300.062 348.432 301.515 348.904 303.007 348.904H409.981C411.096 348.904 412.195 348.64 413.189 348.134C414.183 347.627 415.042 346.893 415.697 345.991C416.353 345.089 416.785 344.044 416.959 342.943C417.133 341.841 417.044 340.714 416.699 339.654Z" fill="#292A2E"/>
<path d="M466.889 342.359H395.28C393.495 342.359 392.049 343.805 392.049 345.589V345.672C392.049 347.457 393.495 348.903 395.28 348.903H466.889C468.673 348.903 470.119 347.457 470.119 345.672V345.589C470.119 343.805 468.673 342.359 466.889 342.359Z" fill="#292A2E"/>
<path d="M466.889 342.359H395.28C393.495 342.359 392.049 343.805 392.049 345.589V345.672C392.049 347.457 393.495 348.903 395.28 348.903H466.889C468.673 348.903 470.119 347.457 470.119 345.672V345.589C470.119 343.805 468.673 342.359 466.889 342.359Z" fill="#292A2E"/>
<path d="M343.365 316.639C349.561 316.639 354.584 311.616 354.584 305.419C354.584 299.223 349.561 294.2 343.365 294.2C337.168 294.2 332.145 299.223 332.145 305.419C332.145 311.616 337.168 316.639 343.365 316.639Z" fill="white"/>
<path d="M422.685 320.747L440.556 314.482L437.991 314.305C437.164 314.232 436.395 313.847 435.841 313.228C435.287 312.61 434.988 311.804 435.005 310.974C435.029 310.546 435.14 310.127 435.331 309.743C435.522 309.359 435.789 309.018 436.116 308.741C436.443 308.464 436.823 308.256 437.233 308.131C437.643 308.005 438.074 307.964 438.501 308.011L470.119 311.371L469.298 321.532C469.043 324.688 467.851 327.696 465.875 330.17C463.9 332.644 461.23 334.471 458.209 335.418L444.516 339.684C443.809 339.919 443.042 339.903 442.345 339.638C441.649 339.373 441.065 338.876 440.693 338.23C440.37 337.64 440.244 336.961 440.333 336.294C440.422 335.627 440.722 335.006 441.189 334.521C441.148 334.491 441.115 334.45 441.095 334.402C441.078 334.357 441.073 334.308 441.08 334.261C441.087 334.213 441.106 334.168 441.134 334.13L438.612 334.921C437.825 335.185 436.967 335.141 436.211 334.797C435.455 334.453 434.859 333.834 434.541 333.067C434.282 332.371 434.276 331.606 434.526 330.906C434.775 330.207 435.263 329.618 435.904 329.243C435.875 329.227 435.848 329.206 435.827 329.18L434.789 329.505C434.082 329.743 433.313 329.728 432.615 329.463C431.917 329.199 431.332 328.7 430.96 328.053C430.568 327.337 430.468 326.498 430.681 325.71C430.895 324.922 431.405 324.248 432.105 323.828C432.099 323.807 432.096 323.785 432.095 323.763L424.652 326.373C424.283 326.502 423.892 326.557 423.502 326.535C423.112 326.514 422.729 326.415 422.377 326.246C421.666 325.903 421.119 325.292 420.858 324.547C420.597 323.802 420.642 322.984 420.985 322.272C421.327 321.56 421.938 321.014 422.683 320.753L422.685 320.747Z" fill="#E98862"/>
<path opacity="0.2" d="M432.391 324.048C432.425 324.048 432.459 324.042 432.492 324.031L439.691 321.413C439.727 321.399 439.761 321.379 439.79 321.352C439.818 321.326 439.842 321.294 439.858 321.259C439.874 321.223 439.884 321.185 439.885 321.146C439.887 321.107 439.881 321.068 439.867 321.032C439.854 320.995 439.833 320.961 439.807 320.933C439.781 320.904 439.749 320.881 439.713 320.864C439.678 320.848 439.64 320.839 439.601 320.837C439.562 320.836 439.523 320.842 439.486 320.855L432.287 323.473C432.221 323.497 432.166 323.543 432.131 323.603C432.096 323.664 432.084 323.735 432.096 323.803C432.108 323.872 432.144 323.934 432.198 323.979C432.251 324.024 432.319 324.048 432.388 324.048H432.391Z" fill="#0A0A0A"/>
<path opacity="0.2" d="M436.028 329.28C436.062 329.28 436.096 329.275 436.128 329.263L441.802 327.249C441.84 327.237 441.874 327.217 441.904 327.191C441.934 327.166 441.958 327.134 441.976 327.098C441.993 327.063 442.003 327.024 442.006 326.985C442.008 326.946 442.002 326.906 441.989 326.869C441.976 326.832 441.955 326.797 441.929 326.768C441.902 326.739 441.87 326.715 441.834 326.699C441.798 326.682 441.76 326.673 441.72 326.671C441.681 326.67 441.641 326.676 441.604 326.69L435.93 328.705C435.864 328.728 435.808 328.774 435.773 328.834C435.737 328.894 435.725 328.965 435.736 329.034C435.748 329.103 435.784 329.165 435.837 329.211C435.891 329.256 435.958 329.28 436.028 329.28Z" fill="#0A0A0A"/>
<path opacity="0.2" d="M441.372 334.596C441.408 334.596 441.444 334.589 441.478 334.577L444.136 333.563C444.21 333.535 444.269 333.479 444.301 333.407C444.333 333.335 444.335 333.254 444.307 333.18C444.279 333.107 444.223 333.047 444.151 333.015C444.079 332.983 443.998 332.981 443.924 333.009L441.266 334.023C441.201 334.048 441.148 334.095 441.114 334.155C441.08 334.215 441.068 334.286 441.081 334.354C441.093 334.422 441.129 334.483 441.182 334.528C441.236 334.572 441.302 334.596 441.372 334.596H441.372Z" fill="#0A0A0A"/>
<path d="M456.124 305.356L531.098 305.306L559.462 236.118L601.772 253.907L566.384 336.023L566.038 336.841C564.307 340.832 561.39 344.195 557.684 346.474C553.978 348.753 549.661 349.837 545.318 349.581L454.99 344.244L456.124 305.356Z" fill="#CDDEFF"/>
<path d="M546.562 349.957C550.765 349.95 554.875 348.718 558.389 346.413C561.904 344.108 564.67 340.828 566.351 336.976L566.697 336.158L596.85 266.19L596.225 265.918L565.724 336.709C564.013 340.63 561.142 343.932 557.497 346.173C553.853 348.413 549.609 349.484 545.338 349.241L455.341 343.925L456.456 305.7L531.326 305.65L553.137 252.451L552.506 252.193L530.87 304.968L455.795 305.019L454.641 344.566L454.972 344.586L545.299 349.922C545.72 349.945 546.146 349.957 546.562 349.957Z" fill="#0C0C0C"/>
<path d="M164.142 355.439L135.408 639.894L136.765 640.031L165.498 355.576L164.142 355.439Z" fill="#494949"/>
<path d="M629.954 355.436L628.598 355.573L657.351 640.026L658.708 639.889L629.954 355.436Z" fill="#494949"/>
<path d="M511.158 355.436L509.801 355.573L538.555 640.026L539.911 639.889L511.158 355.436Z" fill="#494949"/>
<path d="M45.3456 355.438L16.6122 639.893L17.9685 640.03L46.7018 355.575L45.3456 355.438Z" fill="#494949"/>
<path d="M19.4327 361.09L653.981 361.09C657.066 361.09 659.566 358.589 659.566 355.505C659.566 352.421 657.066 349.921 653.981 349.921L19.4327 349.921C16.3483 349.921 13.8478 352.421 13.8478 355.505C13.8478 358.589 16.3483 361.09 19.4327 361.09Z" fill="#292A2E"/>
<path opacity="0.8" d="M19.4327 361.09L653.981 361.09C657.066 361.09 659.566 358.589 659.566 355.505C659.566 352.421 657.066 349.921 653.981 349.921L19.4327 349.921C16.3483 349.921 13.8478 352.421 13.8478 355.505C13.8478 358.589 16.3483 361.09 19.4327 361.09Z" fill="white"/>
<path d="M13.1653 355.505C13.1664 353.843 13.827 352.25 15.0019 351.075C16.1769 349.9 17.7701 349.24 19.4317 349.239H653.978C655.64 349.239 657.234 349.899 658.409 351.074C659.585 352.249 660.245 353.843 660.245 355.505C660.245 357.167 659.585 358.761 658.409 359.936C657.234 361.111 655.64 361.771 653.978 361.771H19.4317C17.7701 361.77 16.1769 361.11 15.0019 359.935C13.827 358.76 13.1664 357.167 13.1653 355.505ZM19.4317 350.602C18.1313 350.602 16.8841 351.118 15.9646 352.038C15.0451 352.957 14.5285 354.205 14.5285 355.505C14.5285 356.805 15.0451 358.053 15.9646 358.972C16.8841 359.892 18.1313 360.408 19.4317 360.408H653.978C655.279 360.408 656.526 359.892 657.445 358.972C658.365 358.053 658.882 356.805 658.882 355.505C658.882 354.205 658.365 352.957 657.445 352.038C656.526 351.118 655.279 350.602 653.978 350.602H19.4317Z" fill="#292A2E"/>
<path d="M19.4322 361.09L530.642 361.09C533.727 361.09 536.227 358.589 536.227 355.505C536.227 352.421 533.727 349.921 530.642 349.921L19.4322 349.921C16.3478 349.921 13.8474 352.421 13.8474 355.505C13.8474 358.589 16.3478 361.09 19.4322 361.09Z" fill="white"/>
<path d="M13.1653 355.505C13.1664 353.843 13.827 352.25 15.0019 351.075C16.1769 349.9 17.7701 349.24 19.4317 349.239H530.643C532.304 349.239 533.898 349.899 535.074 351.074C536.249 352.249 536.909 353.843 536.909 355.505C536.909 357.167 536.249 358.761 535.074 359.936C533.898 361.111 532.304 361.771 530.643 361.771H19.4317C17.7701 361.77 16.1769 361.11 15.0019 359.935C13.827 358.76 13.1664 357.167 13.1653 355.505ZM19.4317 350.602C18.1313 350.602 16.8841 351.118 15.9646 352.038C15.0451 352.957 14.5285 354.205 14.5285 355.505C14.5285 356.805 15.0451 358.053 15.9646 358.972C16.8841 359.892 18.1313 360.408 19.4317 360.408H530.643C531.943 360.408 533.19 359.892 534.11 358.972C535.029 358.053 535.546 356.805 535.546 355.505C535.546 354.205 535.029 352.957 534.11 352.038C533.19 351.118 531.943 350.602 530.643 350.602H19.4317Z" fill="#292A2E"/>
<path d="M160.454 279.917C160.454 279.917 204.022 429.769 193.753 451.674C183.658 473.212 91.5169 599.025 91.5169 599.025L58.3808 570.148L140.333 437.245C140.333 437.245 116.073 360.496 102.958 320.245C95.0516 295.981 81.7486 296.754 80.485 271.266L160.454 279.917Z" fill="#262626"/>
<path d="M112.212 448.846L122.99 436.573L120.185 508.618L108.173 520.035L112.212 448.846Z" fill="#0A0A0A"/>
<path d="M110.427 343.313C110.427 343.313 105.267 312.682 110.786 319.243C128.731 340.577 130.517 406.225 130.517 406.225L110.427 343.313Z" fill="#0A0A0A"/>
<path d="M39.021 276.163C39.021 276.163 38.7197 274.762 38.5439 282.952C38.4178 288.735 36.0691 309.205 44.1894 341.491C59.4007 401.981 104.964 614.617 104.964 614.617L149.658 614.241L107.51 274.304L39.021 276.163Z" fill="#262626"/>
<path d="M38.3294 276.407L38.1836 276.416C38.1836 276.416 38.2885 273.6 38.3294 276.407Z" fill="#333333"/>
<path d="M282.986 142.416C282.717 141.884 282.289 141.448 281.762 141.168C281.234 140.889 280.633 140.781 280.042 140.857C280.047 140.805 280.036 140.752 280.009 140.706C279.982 140.671 279.945 140.643 279.904 140.626C279.862 140.609 279.817 140.604 279.773 140.61L281.77 139.179C282.366 138.77 282.795 138.158 282.977 137.458C283.158 136.757 283.081 136.015 282.758 135.367C282.418 134.738 281.856 134.257 281.181 134.018C280.506 133.78 279.767 133.801 279.107 134.076C279.111 134.048 279.092 134.021 279.088 133.993L279.906 133.404C280.467 133.017 280.877 132.447 281.067 131.792C281.256 131.137 281.213 130.436 280.946 129.809C280.769 129.419 280.509 129.074 280.183 128.797C279.857 128.52 279.474 128.319 279.061 128.208C278.648 128.097 278.215 128.079 277.795 128.156C277.374 128.232 276.975 128.401 276.628 128.65L274.735 130.007C274.73 129.996 274.735 129.983 274.728 129.973C274.72 129.962 274.7 129.958 274.689 129.947C275.123 129.458 275.379 128.836 275.413 128.182C275.448 127.529 275.259 126.884 274.879 126.351C273.985 124.913 271.922 125.207 270.698 126.084L259.556 133.781L261.547 130.428C261.948 129.783 262.089 129.009 261.942 128.264C261.795 127.519 261.371 126.857 260.755 126.413C260.429 126.195 260.061 126.045 259.676 125.973C259.29 125.902 258.894 125.909 258.511 125.996C258.128 126.082 257.767 126.246 257.45 126.477C257.132 126.707 256.865 127 256.665 127.338L245.796 145.643C244.52 147.79 244.132 150.351 244.714 152.78C245.296 155.209 246.802 157.316 248.913 158.652C251.361 160.202 254.215 160.986 257.111 160.902C260.007 160.819 262.812 159.873 265.167 158.185L281.994 146.125C282.553 145.709 282.955 145.116 283.135 144.443C283.315 143.77 283.262 143.056 282.986 142.416Z" fill="#E98862"/>
<g opacity="0.25">
<path d="M263.711 137.611C263.752 137.667 263.813 137.705 263.882 137.717C263.951 137.729 264.021 137.713 264.078 137.674L274.665 130.341C274.694 130.321 274.719 130.295 274.738 130.266C274.757 130.236 274.77 130.203 274.776 130.169C274.782 130.134 274.781 130.099 274.774 130.065C274.767 130.031 274.752 129.998 274.732 129.969C274.713 129.941 274.687 129.916 274.658 129.897C274.628 129.878 274.595 129.865 274.561 129.859C274.526 129.853 274.491 129.853 274.457 129.861C274.423 129.868 274.39 129.882 274.361 129.902L263.774 137.235C263.746 137.255 263.721 137.281 263.702 137.31C263.683 137.339 263.67 137.372 263.664 137.407C263.657 137.441 263.658 137.476 263.665 137.511C263.672 137.545 263.686 137.577 263.706 137.606L263.711 137.611Z" fill="#0C0C0C"/>
</g>
<g opacity="0.25">
<path d="M266.816 142.37C266.857 142.426 266.918 142.464 266.987 142.476C267.056 142.488 267.126 142.472 267.183 142.432L278.998 134.249C279.027 134.229 279.052 134.203 279.071 134.174C279.09 134.145 279.103 134.112 279.109 134.077C279.116 134.043 279.115 134.008 279.108 133.973C279.101 133.939 279.087 133.907 279.067 133.878C279.025 133.822 278.963 133.784 278.895 133.771C278.826 133.758 278.755 133.772 278.696 133.81L266.881 141.993C266.852 142.013 266.827 142.039 266.808 142.068C266.789 142.097 266.776 142.13 266.77 142.165C266.764 142.199 266.764 142.234 266.771 142.269C266.779 142.303 266.793 142.335 266.813 142.364L266.816 142.37Z" fill="#0C0C0C"/>
</g>
<g opacity="0.25">
<path d="M270.15 147.543C270.191 147.599 270.253 147.637 270.321 147.649C270.39 147.66 270.46 147.645 270.518 147.605L279.942 141.078C280.001 141.037 280.04 140.976 280.053 140.906C280.065 140.836 280.05 140.765 280.01 140.706C279.969 140.648 279.908 140.609 279.838 140.596C279.768 140.583 279.697 140.599 279.638 140.639L270.214 147.167C270.185 147.187 270.16 147.212 270.141 147.241C270.122 147.271 270.109 147.304 270.103 147.338C270.096 147.372 270.097 147.408 270.104 147.442C270.112 147.476 270.126 147.509 270.145 147.538L270.15 147.543Z" fill="#0C0C0C"/>
</g>
<path d="M239.379 141.473L207.444 195.862L168.477 144.751L136.113 173.927L191.38 245.5L191.743 246.009C193.955 249.039 196.902 251.456 200.306 253.032C203.71 254.608 207.46 255.291 211.201 255.017C214.943 254.744 218.553 253.522 221.691 251.467C224.83 249.412 227.394 246.592 229.141 243.272L274.554 161.034L239.379 141.473Z" fill="#CDDEFF"/>
<path d="M204.313 202.403C204.244 202.403 204.175 202.385 204.115 202.351C204.054 202.317 204.003 202.268 203.967 202.209C203.931 202.15 203.91 202.082 203.908 202.013C203.905 201.944 203.92 201.875 203.952 201.813L207.082 195.679C207.138 195.596 207.223 195.537 207.319 195.513C207.416 195.488 207.518 195.5 207.606 195.545C207.695 195.59 207.764 195.666 207.801 195.759C207.837 195.852 207.839 195.954 207.805 196.048L204.674 202.182C204.64 202.248 204.588 202.304 204.525 202.343C204.461 202.382 204.388 202.403 204.313 202.403Z" fill="#0C0C0C"/>
<path d="M166.229 195.552L165.254 212.731L166.064 212.777L167.039 195.598L166.229 195.552Z" fill="#0C0C0C"/>
<path d="M63.3264 71.2263C63.3264 71.2263 61.8269 90.3479 57.4444 97.2406C44.8182 117.085 40.9653 139.528 53.2432 151.419C65.5211 163.31 144.684 164.389 150.994 137.439C156.306 114.75 145.499 112.179 143.08 93.3836C141.985 84.8789 138.91 67.0366 138.91 67.0366" fill="#0A0A0A"/>
<path d="M130.84 133.132C130.704 133.114 129.187 158.278 99.9538 156.084C79.7158 154.569 72.4993 133.096 72.0358 133.096C74.2168 132.633 77.8919 131.959 78.8611 131.441C82.0481 129.729 85.9911 127.947 87.0182 121.758C87.6105 118.192 86.6058 99.9437 86.9153 96.3354L117.983 103.269C117.549 110.891 114.511 128.561 125.159 131.691C126.928 132.205 128.836 132.68 130.84 133.132Z" fill="#E98862"/>
<path opacity="0.52" d="M118.417 124.466C117.931 122.898 117.617 121.281 117.482 119.644C117.142 115.91 117.21 112.15 117.687 108.431C111.373 107.578 105.424 104.972 100.517 100.908C99.9407 103.039 96.7687 112.347 97.6465 114.372C99.3089 118.199 107.107 124.466 118.417 124.466Z" fill="#0C0C0C"/>
<path d="M114.299 116.546C102.039 117.589 86.2494 112.507 83.1558 96.1596L80.3613 81.4096C77.2676 65.062 83.3459 50.1853 98.7373 47.2722C114.129 44.3592 128.142 55.4341 131.235 71.7817L132.471 78.3118C133.66 84.5844 136.175 114.685 114.299 116.546Z" fill="#E98862"/>
<path d="M128.087 79.0236C129.152 79.0236 130.016 78.1597 130.016 77.0941C130.016 76.0284 129.152 75.1646 128.087 75.1646C127.021 75.1646 126.157 76.0284 126.157 77.0941C126.157 78.1597 127.021 79.0236 128.087 79.0236Z" fill="#0C0C0C"/>
<path d="M108.321 81.6635C109.386 81.6635 110.25 80.7996 110.25 79.734C110.25 78.6683 109.386 77.8044 108.321 77.8044C107.255 77.8044 106.391 78.6683 106.391 79.734C106.391 80.7996 107.255 81.6635 108.321 81.6635Z" fill="#0C0C0C"/>
<path d="M119.168 93.8793C119.178 93.8786 119.188 93.8772 119.198 93.8752C119.822 93.7524 120.438 93.5954 121.044 93.4049C121.949 93.1139 123.134 92.632 122.98 91.8148C122.804 90.8831 118.35 81.3185 117.843 80.228C117.821 80.181 117.79 80.1387 117.752 80.1037C117.714 80.0686 117.669 80.0415 117.62 80.0237C117.571 80.006 117.519 79.9981 117.468 80.0004C117.416 80.0027 117.365 80.0152 117.318 80.0372C117.271 80.0591 117.229 80.0902 117.193 80.1285C117.158 80.1668 117.131 80.2116 117.114 80.2604C117.096 80.3092 117.088 80.361 117.09 80.4128C117.092 80.4647 117.105 80.5156 117.127 80.5626C119.027 84.6364 122.085 91.3349 122.203 91.962C122.101 92.2523 120.599 92.8051 119.051 93.0982C118.951 93.1178 118.863 93.1751 118.804 93.2583C118.745 93.3415 118.721 93.4441 118.736 93.5448C118.751 93.6454 118.805 93.7364 118.885 93.7987C118.966 93.861 119.067 93.8899 119.168 93.8793Z" fill="#0C0C0C"/>
<path d="M116.889 100.937C119.4 100.612 121.798 99.7015 123.892 98.2792C123.979 98.2215 124.04 98.1318 124.061 98.0298C124.082 97.9278 124.062 97.8216 124.005 97.7343C123.948 97.647 123.859 97.5856 123.757 97.5636C123.655 97.5416 123.549 97.5607 123.461 97.6167C118.93 100.569 114.427 101.046 110.443 98.9975C110.362 98.954 110.279 98.9146 110.195 98.8796C110.096 98.845 109.988 98.8506 109.894 98.8953C109.8 98.94 109.727 99.0201 109.692 99.1182C109.656 99.2163 109.661 99.3244 109.705 99.419C109.749 99.5136 109.828 99.587 109.926 99.6232C109.958 99.6362 110.009 99.6641 110.082 99.7016C112.177 100.782 114.548 101.212 116.889 100.937Z" fill="#0C0C0C"/>
<path d="M68.0511 86.5499L81.8489 84.0206C92.2981 79.7948 95.4586 61.7024 95.4586 61.7024C95.4586 61.7024 108.151 74.073 138.91 67.0371C138.91 67.0371 132.743 24.1408 87.3008 36.6136C72.6469 40.6349 62.1316 55.4013 63.4416 75.1356C64.3597 88.9654 68.0511 86.5499 68.0511 86.5499Z" fill="#0A0A0A"/>
<path d="M85.0537 100.959C80.3761 101.845 75.6378 97.5579 74.7524 92.8802C73.867 88.2026 77.1706 84.9058 81.8483 84.0198L84.8513 86.6977L89.0771 100.197L85.0537 100.959Z" fill="#E98862"/>
<path d="M120.661 72.4106C122.027 71.5294 123.604 71.0317 125.228 70.9697C126.027 70.9344 126.827 71.0189 127.601 71.2206C128.367 71.4176 129.105 71.7103 129.799 72.0916C129.893 72.1416 129.965 72.2262 129.998 72.3278C130.031 72.4293 130.024 72.5399 129.978 72.6362C129.931 72.7325 129.849 72.8071 129.749 72.8442C129.649 72.8813 129.538 72.8781 129.44 72.8352L129.41 72.8216C128.769 72.5069 128.092 72.2738 127.393 72.1277C126.702 71.9797 125.993 71.9372 125.289 72.0017C123.893 72.1183 122.553 72.6023 121.404 73.4043L121.368 73.4316C121.234 73.52 121.072 73.5534 120.914 73.5247C120.756 73.496 120.616 73.4075 120.522 73.2777C120.429 73.1479 120.389 72.9869 120.411 72.8283C120.433 72.6698 120.516 72.5259 120.642 72.427L120.661 72.4106Z" fill="#0C0C0C"/>
<path d="M108.355 75.308C106.995 74.9748 105.571 75.0075 104.227 75.4028C103.548 75.5971 102.902 75.8928 102.312 76.2799C101.712 76.6687 101.165 77.1312 100.681 77.6567L100.659 77.6785C100.584 77.7544 100.482 77.7979 100.374 77.7998C100.267 77.8018 100.164 77.762 100.085 77.689C100.007 77.6159 99.96 77.5153 99.9545 77.4083C99.9489 77.3013 99.9851 77.1963 100.056 77.1156C100.564 76.5095 101.147 75.97 101.79 75.5098C102.439 75.0423 103.154 74.6747 103.912 74.4192C105.448 73.8912 107.098 73.7857 108.688 74.1139C108.849 74.1485 108.99 74.2456 109.079 74.3839C109.168 74.5221 109.199 74.6901 109.164 74.851C109.13 75.0119 109.033 75.1524 108.894 75.2417C108.756 75.331 108.588 75.3617 108.427 75.3271L108.402 75.321L108.355 75.308Z" fill="#0C0C0C"/>
<path d="M117.421 104.649C117.876 104.596 118.326 104.505 118.766 104.376C118.815 104.362 118.862 104.338 118.903 104.305C118.943 104.273 118.977 104.233 119.002 104.188C119.027 104.142 119.043 104.092 119.049 104.041C119.055 103.989 119.05 103.937 119.036 103.887C119.022 103.837 118.998 103.79 118.965 103.75C118.933 103.709 118.893 103.675 118.847 103.65C118.802 103.625 118.752 103.609 118.7 103.603C118.649 103.598 118.597 103.602 118.547 103.616C115.902 104.378 114.397 103.369 114.334 103.325C114.248 103.265 114.142 103.241 114.038 103.259C113.935 103.277 113.843 103.336 113.783 103.422C113.723 103.508 113.699 103.614 113.717 103.717C113.735 103.821 113.793 103.912 113.879 103.973C114.946 104.601 116.198 104.839 117.421 104.649Z" fill="#0C0C0C"/>
<path d="M81.8772 83.8443L81.7409 83.4627C99.2226 77.1867 94.9478 60.0315 94.9028 59.859L95.2947 59.7561C95.3404 59.9333 99.7161 77.443 81.8772 83.8443Z" fill="#0C0C0C"/>
<path opacity="0.1" d="M106.762 95.0837C108.78 94.8665 110.287 93.4902 110.128 92.0097C109.969 90.5291 108.203 89.5049 106.185 89.722C104.167 89.9392 102.659 91.3155 102.819 92.7961C102.978 94.2767 104.743 95.3009 106.762 95.0837Z" fill="#0C0C0C"/>
<path opacity="0.1" d="M128.126 89.4195C128.29 90.8979 130.055 91.9209 132.073 91.7062C132.422 91.6686 132.766 91.5949 133.099 91.4861C133.213 89.7269 133.235 88.0339 133.205 86.4656C132.647 86.3196 132.066 86.2789 131.493 86.3456C129.474 86.5596 127.968 87.933 128.126 89.4195Z" fill="#0C0C0C"/>
<path d="M167.161 188.534C166.241 199.351 161.761 266.841 160.877 280.166H38.5835C37.8944 268.148 35.0809 215.599 32.4671 192.098C29.9725 169.674 25.0774 158.445 28.6652 151.817C34.5268 140.98 50.5499 134.72 61.4742 133.241C68.1455 132.338 78.179 131.691 78.179 131.691C78.179 131.691 79.0289 148.877 99.2853 149.833C126.861 151.134 125.02 131.691 125.157 131.691C129.624 131.691 155.146 134.519 161.387 138.219C178.4 148.291 169.116 165.607 167.161 188.534Z" fill="#CDDEFF"/>
<path d="M243.198 196.089L231.907 250.971C231.677 252.086 231.073 253.088 230.194 253.81C229.315 254.533 228.215 254.933 227.078 254.943L149.325 255.605C148.583 255.611 147.85 255.451 147.178 255.137C146.506 254.823 145.913 254.362 145.442 253.789C144.971 253.217 144.634 252.546 144.455 251.826C144.277 251.106 144.262 250.355 144.411 249.629L155.703 194.746C155.933 193.632 156.537 192.63 157.416 191.907C158.295 191.184 159.395 190.785 160.532 190.775L238.285 190.113C239.027 190.107 239.76 190.267 240.432 190.581C241.104 190.895 241.697 191.355 242.168 191.928C242.639 192.501 242.976 193.172 243.154 193.892C243.332 194.612 243.348 195.362 243.198 196.089Z" fill="#292A2E"/>
<path d="M170.695 235.073C170.737 235.796 170.516 236.509 170.074 237.082C169.631 237.655 168.995 238.048 168.285 238.189L165.892 238.716C165.935 238.73 165.974 238.754 166.005 238.787C166.036 238.82 166.058 238.859 166.07 238.903C166.076 238.954 166.065 239.005 166.038 239.049C166.614 239.21 167.124 239.547 167.499 240.012C167.874 240.478 168.095 241.048 168.131 241.645C168.135 242.34 167.903 243.016 167.475 243.564C167.047 244.112 166.446 244.499 165.77 244.663L145.558 249.15C144.525 249.382 143.469 249.499 142.41 249.499C140.051 249.499 137.727 248.925 135.64 247.827C133.552 246.728 131.762 245.139 130.426 243.195C129.008 241.138 128.449 238.61 128.868 236.147C129.286 233.685 130.649 231.483 132.666 230.01L149.859 217.441C150.237 217.164 150.677 216.983 151.141 216.914L149.558 224.598L149.98 224.5L150.07 224.484L163.255 221.798C164.723 221.474 166.736 222.009 166.996 223.68C167.135 224.32 167.053 224.989 166.765 225.576C166.476 226.164 165.997 226.637 165.405 226.918C165.413 226.926 165.43 226.934 165.43 226.951C165.43 226.967 165.421 226.975 165.421 226.991L167.701 226.488C168.118 226.395 168.551 226.397 168.967 226.492C169.384 226.586 169.775 226.772 170.111 227.036C170.447 227.3 170.72 227.635 170.911 228.018C171.102 228.4 171.206 228.82 171.215 229.247C171.215 229.929 170.979 230.59 170.547 231.118C170.115 231.646 169.514 232.008 168.846 232.144L167.863 232.362C167.856 232.395 167.863 232.431 167.848 232.452C168.563 232.457 169.251 232.728 169.777 233.213C170.304 233.697 170.631 234.361 170.695 235.073Z" fill="#E98862"/>
<g opacity="0.25">
<path d="M152.296 229.655C152.311 229.723 152.352 229.783 152.411 229.821C152.469 229.859 152.541 229.873 152.609 229.859L165.225 227.269C165.294 227.255 165.355 227.214 165.394 227.155C165.433 227.096 165.447 227.024 165.432 226.954C165.418 226.885 165.377 226.824 165.318 226.786C165.259 226.747 165.187 226.733 165.117 226.747L152.502 229.337C152.433 229.352 152.373 229.393 152.334 229.452C152.296 229.511 152.283 229.583 152.297 229.651L152.296 229.655Z" fill="#0C0C0C"/>
</g>
<g opacity="0.25">
<path d="M153.283 235.251C153.298 235.319 153.34 235.378 153.398 235.415C153.457 235.453 153.528 235.466 153.596 235.452L167.675 232.565C167.744 232.55 167.804 232.508 167.843 232.449C167.881 232.39 167.894 232.319 167.88 232.25C167.864 232.182 167.822 232.123 167.763 232.085C167.705 232.047 167.634 232.033 167.565 232.045L153.486 234.933C153.417 234.948 153.357 234.989 153.319 235.048C153.281 235.107 153.267 235.179 153.281 235.247L153.283 235.251Z" fill="#0C0C0C"/>
</g>
<g opacity="0.25">
<path d="M154.317 241.318C154.332 241.386 154.373 241.446 154.432 241.484C154.491 241.522 154.562 241.536 154.631 241.522L165.861 239.219C165.896 239.212 165.929 239.199 165.958 239.179C165.988 239.16 166.013 239.135 166.032 239.105C166.052 239.076 166.066 239.043 166.073 239.009C166.079 238.974 166.079 238.938 166.072 238.904C166.065 238.869 166.051 238.836 166.031 238.807C166.011 238.778 165.986 238.753 165.956 238.734C165.927 238.714 165.894 238.701 165.859 238.695C165.824 238.689 165.788 238.689 165.754 238.697L154.523 241C154.454 241.015 154.394 241.056 154.356 241.115C154.317 241.174 154.304 241.246 154.318 241.315L154.317 241.318Z" fill="#0C0C0C"/>
</g>
<path d="M144.307 257.148L34.6514 276.964C31.2296 277.336 27.7681 276.91 24.5384 275.72C21.3088 274.53 18.3988 272.608 16.0369 270.104C13.675 267.6 11.9253 264.583 10.9252 261.29C9.92515 257.996 9.70182 254.516 10.2728 251.122L25.6246 159.875C26.6051 154.048 29.86 148.85 34.6731 145.424C37.0564 143.727 39.7504 142.517 42.6015 141.861C45.4525 141.206 48.4048 141.118 51.2896 141.604C54.1745 142.089 56.9355 143.138 59.4149 144.691C61.8944 146.243 64.0438 148.269 65.7404 150.652C67.437 153.036 68.6475 155.73 69.3029 158.581C69.9584 161.432 70.0458 164.384 69.5603 167.269L59.0954 230.08L139.489 219.984L144.307 257.148Z" fill="#CDDEFF"/>
<path d="M34.6502 277.369C34.5531 277.362 34.4617 277.32 34.3924 277.252C34.3232 277.183 34.2806 277.092 34.2724 276.995C34.2642 276.898 34.2909 276.802 34.3476 276.723C34.4044 276.643 34.4875 276.587 34.5821 276.564L143.858 256.817L139.138 220.437L59.1426 230.483C59.0803 230.491 59.0169 230.484 58.9577 230.463C58.8985 230.442 58.8451 230.407 58.8018 230.361C58.7579 230.316 58.7253 230.261 58.7066 230.2C58.6879 230.14 58.6836 230.076 58.6941 230.014L65.3484 189.869C65.3565 189.816 65.3752 189.765 65.4032 189.72C65.4312 189.674 65.4681 189.635 65.5116 189.604C65.5551 189.573 65.6044 189.551 65.6565 189.539C65.7087 189.527 65.7626 189.526 65.8152 189.536C65.8678 189.544 65.9182 189.563 65.9634 189.591C66.0087 189.62 66.0479 189.656 66.0788 189.7C66.1098 189.743 66.1319 189.792 66.1439 189.844C66.1558 189.896 66.1574 189.95 66.1485 190.002L59.5829 229.611L139.437 219.582C139.543 219.57 139.65 219.599 139.735 219.665C139.82 219.73 139.876 219.826 139.89 219.932L144.711 257.096C144.724 257.199 144.696 257.303 144.635 257.387C144.574 257.471 144.483 257.528 144.381 257.547L34.7231 277.363C34.699 277.367 34.6747 277.369 34.6502 277.369Z" fill="#0C0C0C"/>
<path d="M59.0297 229.681L51.976 230.81L52.1043 231.612L59.1581 230.482L59.0297 229.681Z" fill="#0C0C0C"/>
<path d="M430.201 61.9564V61.9569C430.201 70.5869 428.375 79.1192 424.843 86.9935C421.312 94.8678 416.154 101.906 409.71 107.646L409.709 107.646C395.839 120.041 387.572 137.516 387.425 156.111L350.009 156.068C349.904 137.448 341.635 119.964 327.79 107.511L327.789 107.511C321.403 101.785 316.293 94.7798 312.789 86.951C309.285 79.1222 307.466 70.6442 307.451 62.0672L307.451 62.0666C307.356 28.8391 334.191 1.27386 367.409 0.526852L367.409 0.526845C375.592 0.337953 383.73 1.78772 391.344 4.79084C398.959 7.79396 405.895 12.2898 411.746 18.0137C417.597 23.7376 422.244 30.5739 425.413 38.1205C428.582 45.667 430.21 53.7713 430.201 61.9564Z" fill="white" stroke="black"/>
<path d="M386.944 68.407L386.944 68.4069C386.424 67.7377 385.472 67.2628 384 67.0975L386.944 68.407ZM386.944 68.407L386.949 68.4129M386.944 68.407L386.949 68.4129M386.949 68.4129C387.267 68.8098 387.42 69.3141 387.376 69.8207L375.091 156.593C375.087 156.609 375.078 156.624 375.064 156.634C375.052 156.643 375.037 156.648 375.022 156.648C375.018 156.647 375.014 156.645 375.01 156.643C375.004 156.64 374.999 156.635 374.995 156.63C374.991 156.624 374.988 156.618 374.986 156.611L374.502 156.736L374.986 156.611C374.984 156.605 374.984 156.598 374.985 156.591L374.985 156.591L387.279 69.7794L387.282 69.7592L387.283 69.739C387.292 69.591 387.302 69.0272 386.843 68.4516C386.383 67.8743 385.524 67.3757 383.988 67.2005L383.989 67.2003L383.975 67.1991C383.778 67.1819 383.574 67.17 383.362 67.17C380.872 67.17 378.202 68.8063 375.919 71.568C375.919 71.5684 375.918 71.5687 375.918 71.5691L375.809 71.6998L375.605 71.9438L375.739 72.2321L375.81 72.3836C375.81 72.3841 375.811 72.3847 375.811 72.3853C376.594 74.0937 377.07 76.0357 377.209 77.8688C377.348 79.7097 377.144 81.397 376.609 82.6148L376.608 82.6151C376.068 83.847 375.256 84.4243 374.376 84.4384H374.33H374.31L374.291 84.4399C373.828 84.4762 373.365 84.3784 372.956 84.1581C372.548 83.9381 372.212 83.6052 371.988 83.1993C371.401 82.1125 371.456 80.4648 371.999 78.5874C372.535 76.7348 373.513 74.7724 374.606 73.1489L374.606 73.1489C374.795 72.8682 374.989 72.595 375.188 72.3293L375.188 72.3294L375.192 72.3241L375.297 72.1803L375.488 71.9194L375.328 71.6385L375.242 71.4869C374.845 70.7635 374.368 70.0868 373.82 69.4694L373.819 69.4687C371.335 66.6788 367.865 65.9052 363.894 67.1273C362.166 67.6224 360.575 68.5093 359.245 69.719L359.245 69.719L359.239 69.7249L359.051 69.9021L358.714 70.2193L359.004 70.5796L359.163 70.7769C360.572 72.5591 361.604 75.0686 362.208 78.2845C362.872 81.8657 361.823 83.1806 361.299 83.6104L361.299 83.6103L361.293 83.6152C361.033 83.8345 360.719 83.9784 360.383 84.0314C360.048 84.0843 359.704 84.0442 359.39 83.9154L359.39 83.9154L359.384 83.9132C358.53 83.5752 357.695 82.6128 357.086 81.2106C356.485 79.8271 356.143 78.1 356.212 76.3718L356.212 76.3718L356.212 76.3629C356.257 74.346 356.936 72.3946 358.154 70.7863L358.307 70.5901L358.592 70.2253L358.25 69.9132L358.062 69.742C358.062 69.7419 358.062 69.7419 358.062 69.7418C357.659 69.3722 357.219 69.0435 356.751 68.7605C353.888 67.0139 350.67 67.4673 348.536 68.1122L348.536 68.1122L348.535 68.1126C348.038 68.2644 347.613 68.5928 347.342 69.036L347.723 69.2698L347.342 69.036C347.07 69.4791 346.971 70.0061 347.061 70.5177C347.061 70.5178 347.061 70.518 347.061 70.5182L362.121 156.57C362.121 156.57 362.121 156.57 362.121 156.57C362.123 156.584 362.12 156.598 362.112 156.609C362.104 156.621 362.091 156.629 362.077 156.631C362.063 156.634 362.049 156.63 362.037 156.622C362.026 156.614 362.018 156.602 362.016 156.588L362.015 156.587L346.958 70.5306C346.958 70.5306 346.958 70.5305 346.958 70.5304C346.865 69.9937 346.971 69.4412 347.256 68.977C347.541 68.5129 347.986 68.169 348.507 68.01C350.751 67.3301 353.958 66.9289 356.807 68.666L356.808 68.6667C357.279 68.9515 357.72 69.281 358.127 69.6506L358.311 69.8245L358.654 70.1487L358.997 69.8251L359.182 69.6505C360.518 68.4305 362.115 67.5332 363.852 67.0275L363.852 67.0275L363.86 67.0252C366.465 66.221 368.537 66.338 370.165 66.8803C371.799 67.4243 373.022 68.4091 373.903 69.3957C374.319 69.8641 374.694 70.3677 375.023 70.9008L375.024 70.9034L375.218 71.2128L375.567 71.7712L376.011 71.2847L376.26 71.0121L376.26 71.0121M386.949 68.4129L376.26 71.0121M376.26 71.0121L376.264 71.0072M376.26 71.0121L376.264 71.0072M376.264 71.0072C378.773 68.1842 381.611 66.8304 383.999 67.0975L376.264 71.0072ZM360.084 83.9498L360.084 83.9499L360.094 83.9498C360.513 83.9469 360.917 83.7959 361.235 83.5236C361.84 83.0271 362.726 81.6665 362.103 78.3091C361.718 75.7351 360.76 73.2801 359.302 71.1242L359.294 71.1122L359.285 71.1006L359.053 70.7966L358.637 70.2523L358.245 70.8147L358.03 71.1241L358.03 71.1241L358.027 71.128C356.969 72.6797 356.375 74.501 356.315 76.3782C356.244 78.1509 356.601 79.822 357.167 81.1334C357.45 81.7896 357.791 82.3655 358.165 82.8223C358.536 83.2744 358.962 83.6354 359.424 83.8201L359.426 83.8212C359.636 83.9035 359.859 83.947 360.084 83.9498ZM376.512 82.5729L376.512 82.5722C377.021 81.41 377.212 79.8797 377.135 78.2702C377.058 76.6535 376.708 74.9165 376.099 73.321L376.091 73.3004L376.081 73.2805L375.86 72.8273L375.481 72.0485L374.996 72.7665L374.698 73.2086C374.698 73.2087 374.698 73.2088 374.698 73.2089C373.454 75.0504 372.542 77.0136 372.064 78.757C371.825 79.6287 371.69 80.4573 371.682 81.1957C371.674 81.9285 371.789 82.6063 372.081 83.1494C372.293 83.5461 372.618 83.8703 373.016 84.0804C373.405 84.2861 373.846 84.373 374.284 84.3308H374.363V84.3309L374.371 84.3307C375.359 84.3154 376.058 83.6052 376.512 82.5729Z" fill="white" stroke="black"/>
<path d="M350.033 157.013L387.447 157.051L387.445 158.796C387.44 163.757 385.464 168.513 381.953 172.018C378.441 175.523 373.681 177.489 368.719 177.484C363.758 177.479 359.002 175.503 355.497 171.991C351.992 168.48 350.026 163.72 350.031 158.758L350.033 157.013Z" fill="#262626" stroke="black"/>
</g>
</svg>
