<svg width="1303" height="149" viewBox="0 0 1303 149" fill="none" xmlns="http://www.w3.org/2000/svg">
<path d="M17.4576 67C22.0876 67 26.5278 68.8392 29.8017 72.1131C33.0755 75.3869 34.9148 79.8272 34.9148 84.4571C34.9148 88.7811 33.3302 92.756 30.7251 95.8177L31.4502 96.5429H33.5719L47.0005 109.971L42.9719 114L29.5433 100.571V98.4497L28.8182 97.7246C25.7565 100.33 21.7816 101.914 17.4576 101.914C12.8277 101.914 8.38742 100.075 5.11357 96.8012C1.83972 93.5274 0.000488281 89.0871 0.000488281 84.4571C0.000488281 79.8272 1.83972 75.3869 5.11357 72.1131C8.38742 68.8392 12.8277 67 17.4576 67ZM17.4576 72.3714C10.7433 72.3714 5.37192 77.7429 5.37192 84.4571C5.37192 91.1714 10.7433 96.5429 17.4576 96.5429C24.1719 96.5429 29.5433 91.1714 29.5433 84.4571C29.5433 77.7429 24.1719 72.3714 17.4576 72.3714Z" fill="#00629A"/>
<path d="M508.778 90C507.511 90 506.296 90.5034 505.4 91.3994C504.504 92.2954 504 93.5106 504 94.7778H508.778M513.556 90V94.7778H518.334V90M523.112 90V94.7778H527.889V90M532.667 90V94.7778H537.445V90M542.223 90V94.7778H547C547 93.5106 546.497 92.2954 545.601 91.3994C544.705 90.5034 543.49 90 542.223 90ZM504 99.5556V104.333H508.778V99.5556M513.556 99.5556V109.111H523.112V99.5556M527.889 99.5556V109.111H537.445V99.5556M542.223 99.5556V104.333H547V99.5556M504 109.111V113.889H508.778V109.111M542.223 109.111V113.889H547V109.111M513.556 113.889V123.444H523.112V113.889M527.889 113.889V123.444H537.445V113.889M504 118.667V123.444H508.778V118.667M542.223 118.667V123.444H547V118.667M504 128.222C504 129.489 504.504 130.705 505.4 131.601C506.296 132.497 507.511 133 508.778 133V128.222M513.556 128.222V133H518.334V128.222M523.112 128.222V133H527.889V128.222M532.667 128.222V133H537.445V128.222M542.223 128.222V133C543.49 133 544.705 132.497 545.601 131.601C546.497 130.705 547 129.489 547 128.222H542.223Z" fill="#00669D"/>
<path d="M276.378 8.72727C285.747 8.72727 293.195 16.0545 293.195 25.2727C293.195 31.8909 289.351 37.5636 283.585 40.1636V51.2727H266.767V44.1818H264.365C261.722 44.1818 259.56 42.0545 259.56 39.4545V32.3636H255.956C254.995 32.3636 254.274 31.1818 254.995 30.4727L259.56 24.5636C260.04 15.5818 267.248 8.72727 276.378 8.72727ZM276.378 4C265.326 4 256.196 12.0364 254.995 22.6727L251.151 27.6364C249.709 29.5273 249.709 31.8909 250.67 33.7818C251.631 35.4364 253.073 36.6182 254.755 36.8545V39.4545C254.755 43.9455 257.878 47.4909 261.962 48.6727V56H288.39V43C294.397 38.9818 298 32.6 298 25.2727C298 13.4545 288.39 4 276.378 4ZM269.17 25.2727C267.728 25.2727 266.767 24.3273 266.767 22.9091C266.767 21.4909 267.728 20.5455 269.17 20.5455C270.611 20.5455 271.572 21.4909 271.572 22.9091C271.572 24.3273 270.611 25.2727 269.17 25.2727ZM276.378 25.2727C274.936 25.2727 273.975 24.3273 273.975 22.9091C273.975 21.4909 274.936 20.5455 276.378 20.5455C277.819 20.5455 278.78 21.4909 278.78 22.9091C278.78 24.3273 277.819 25.2727 276.378 25.2727ZM283.585 25.2727C282.384 25.2727 281.183 24.3273 281.183 22.9091C281.183 21.4909 282.384 20.5455 283.585 20.5455C284.786 20.5455 285.988 21.4909 285.988 22.9091C285.988 24.3273 284.786 25.2727 283.585 25.2727Z" fill="#00669D"/>
<path d="M793.25 26.0623V12.7498L787.008 15.8857C787.215 16.7732 787.334 17.6903 787.334 18.6665C787.334 25.2044 782.038 30.4998 775.5 30.4998C768.962 30.4998 763.667 25.2044 763.667 18.6665C763.667 17.6903 763.785 16.7732 763.992 15.8857L754.792 11.2707L775.5 0.916504L796.209 11.2707V26.0623H793.25ZM775.5 21.6248L769.584 18.6665C769.584 21.9207 772.246 24.5832 775.5 24.5832C778.755 24.5832 781.417 21.9207 781.417 18.6665L775.5 21.6248ZM783.636 11.034L775.974 7.129L768.016 11.1819L775.707 15.0869L783.636 11.034ZM775.5 33.4582C783.399 33.4582 799.167 37.3928 799.167 45.2915V54.1665H751.834V45.2915C751.834 37.3928 767.602 33.4582 775.5 33.4582ZM775.5 39.079C766.625 39.079 757.455 43.3982 757.455 45.2915V48.5457H793.546V45.2915C793.546 43.3982 784.287 39.079 775.5 39.079Z" fill="#00669D"/>
<path d="M1019.71 128.071H1019.09L1018.65 128.511L1011.5 135.664V100.429C1011.5 100.182 1011.6 99.9461 1011.77 99.772C1011.95 99.5978 1012.18 99.5 1012.43 99.5H1048.86C1049.1 99.5 1049.34 99.5978 1049.51 99.772C1049.69 99.9461 1049.79 100.182 1049.79 100.429V127.143C1049.79 127.389 1049.69 127.625 1049.51 127.799C1049.34 127.974 1049.1 128.071 1048.86 128.071H1019.71ZM1023.64 136.857V135.929H1056.14H1057.64V134.429V114.071H1058.57C1058.82 114.071 1059.05 114.169 1059.23 114.343C1059.4 114.518 1059.5 114.754 1059.5 115V145.379L1052.35 138.225L1051.91 137.786H1051.29H1024.57C1024.33 137.786 1024.09 137.688 1023.92 137.514C1023.74 137.34 1023.64 137.103 1023.64 136.857ZM1019.03 103.074L1019.01 103.093L1018.98 103.112C1017.3 104.437 1016.51 106.293 1016.54 108.608L1016.54 108.841L1016.62 109.063L1016.64 109.136L1016.98 110.161H1018.06H1022.75H1024.2L1024.25 108.711C1024.26 108.306 1024.36 108.172 1024.41 108.12C1024.56 108.003 1024.75 107.927 1025.03 107.927C1025.44 107.927 1025.67 108.049 1025.78 108.154C1025.87 108.262 1025.99 108.48 1025.99 108.929C1025.99 109.478 1025.87 109.814 1025.7 110.063L1025.67 110.101L1025.65 110.14C1025.45 110.461 1025.13 110.787 1024.66 111.075L1024.64 111.09L1024.61 111.105C1023.35 111.947 1022.32 112.792 1021.69 113.674C1020.93 114.673 1020.64 116.061 1020.64 117.429V118.357V118.929V119.857V124.714V126.214H1022.14H1027H1028.5V124.714V119.857V118.929V118.357V117.429C1028.5 116.765 1028.59 116.433 1028.66 116.302C1028.72 116.178 1028.9 115.937 1029.32 115.661C1030.54 115.004 1031.61 114.17 1032.46 112.99C1033.33 111.792 1033.82 110.493 1033.82 108.929C1033.82 106.685 1033 104.765 1031.32 103.361C1029.68 101.977 1027.53 101.357 1025.03 101.357C1022.69 101.357 1020.66 101.897 1019.03 103.074ZM1035.21 124.714V126.214H1036.71H1041.57H1043.07V124.714V119.857V118.929V118.357V117.429V102.857V101.357H1041.57H1036.71H1035.21V102.857V117.429V118.357V118.929V119.857V124.714Z" stroke="#1B4B7B" stroke-width="3"/>
<path d="M1279.58 6.75016C1289.66 6.75016 1297.67 14.7585 1297.67 24.8335C1297.67 32.0668 1293.53 38.2668 1287.33 41.1085V53.2502H1269.25V45.5002H1266.67C1263.83 45.5002 1261.5 43.1752 1261.5 40.3335V32.5835H1257.63C1256.59 32.5835 1255.82 31.2918 1256.59 30.5168L1261.5 24.0585C1262.02 14.2418 1269.77 6.75016 1279.58 6.75016ZM1279.58 1.5835C1267.7 1.5835 1257.88 10.3668 1256.59 21.9918L1252.46 27.4168C1250.91 29.4835 1250.91 32.0668 1251.94 34.1335C1252.98 35.9418 1254.53 37.2335 1256.33 37.4918V40.3335C1256.33 45.2418 1259.69 49.1168 1264.08 50.4085V58.4168H1292.5V44.2085C1298.96 39.8168 1302.83 32.8418 1302.83 24.8335C1302.83 11.9168 1292.5 1.5835 1279.58 1.5835ZM1282.17 35.1668H1277V32.5835H1282.17V35.1668ZM1286.3 23.5418C1285.53 24.5752 1284.75 25.6085 1283.46 26.3835V30.0002H1275.71V26.3835C1272.09 24.3168 1270.8 19.4085 1272.87 15.7918C1274.93 12.1752 1279.84 10.8835 1283.46 12.9502C1287.08 15.0168 1288.37 19.9252 1286.3 23.5418Z" fill="#00669D"/>
</svg>
