<svg width="243" height="17" viewBox="0 0 243 17" fill="none" xmlns="http://www.w3.org/2000/svg">
<g clip-path="url(#clip0_1_1842)">
<path d="M241.869 4.37644C241.756 3.04645 240.756 1.99464 239.496 1.88062C238.036 1.75283 235.873 1.61914 233.204 1.61914C229.991 1.61914 227.564 1.75774 225.996 1.8875C224.73 1.99464 223.722 3.05038 223.609 4.38627C223.512 5.45281 223.429 6.86144 223.429 8.54138C223.429 10.18 223.512 11.5641 223.607 12.6169C223.721 13.9508 224.729 15.0046 225.993 15.1117C227.563 15.2424 229.989 15.381 233.204 15.381C235.873 15.381 238.036 15.2474 239.496 15.1196C240.756 15.0055 241.756 13.9528 241.869 12.6237C241.964 11.5621 242.048 10.1623 242.048 8.50009C242.048 6.83687 241.964 5.43807 241.869 4.37644ZM230.668 11.3891V5.61108L236.066 8.50009L230.668 11.3891Z" fill="white"/>
</g>
<path d="M6.47674 6.07502H4.27099V4.6467C4.27099 4.11001 4.63102 3.98524 4.88459 3.98524C5.13759 3.98524 6.44126 3.98524 6.44126 3.98524V1.62712L4.29753 1.61914C1.91811 1.61914 1.37662 3.37791 1.37662 4.50341V6.07531H0.000549316V8.50522H1.37662C1.37662 11.6234 1.37662 15.381 1.37662 15.381H4.27099C4.27099 15.381 4.27099 11.5866 4.27099 8.50522H6.22432L6.47674 6.07502Z" fill="white"/>
<path d="M194.815 5.75682L187.407 1.79094C187.022 1.58473 186.604 1.57417 186.243 1.7059L192.554 8.01724L194.815 5.75682Z" fill="white"/>
<path d="M197.577 7.23542L195.443 6.09326L193.037 8.49986L195.443 10.9062L197.577 9.76402C198.587 9.22295 198.587 7.77593 197.577 7.23542Z" fill="white"/>
<path d="M185.665 2.09326C185.439 2.34198 185.296 2.67407 185.296 3.05479V13.9451C185.296 14.3255 185.439 14.6573 185.665 14.9066L192.072 8.5002L185.665 2.09326Z" fill="white"/>
<path d="M186.243 15.294C186.604 15.426 187.021 15.4158 187.407 15.209L194.815 11.2431L192.554 8.98242L186.243 15.294Z" fill="white"/>
<path d="M85.8102 3.15241C85.2447 3.41286 84.6362 3.58854 83.9977 3.66717C84.6496 3.26274 85.1495 2.62212 85.3852 1.85792C84.7754 2.2329 84.1004 2.505 83.3814 2.65189C82.8056 2.01645 81.9854 1.61914 81.0781 1.61914C79.3356 1.61914 77.9228 3.08317 77.9228 4.88919C77.9228 5.14511 77.9506 5.39456 78.0046 5.6343C75.3823 5.49777 73.0565 4.19616 71.5001 2.21737C71.2285 2.7001 71.0733 3.26209 71.0733 3.86161C71.0733 4.99628 71.63 5.99732 72.4767 6.58325C71.96 6.56611 71.473 6.41889 71.0477 6.17397C71.0474 6.18756 71.0474 6.20147 71.0474 6.21539C71.0474 7.79945 72.1349 9.1208 73.5786 9.42169C73.3138 9.49579 73.035 9.53623 72.7471 9.53623C72.5439 9.53623 72.3459 9.51584 72.1536 9.47734C72.5551 10.7764 73.7206 11.7221 75.101 11.7483C74.021 12.6254 72.661 13.1483 71.182 13.1483C70.9275 13.1483 70.6762 13.1327 70.4292 13.1023C71.8261 14.0306 73.4846 14.5715 75.2664 14.5715C81.0709 14.5715 84.2447 9.58897 84.2447 5.26773C84.2447 5.12602 84.2419 4.98463 84.2359 4.84389C84.8523 4.38446 85.3874 3.80823 85.8102 3.15241Z" fill="white"/>
<path d="M34.8101 6.47656H31.572V15.3813H34.8101V6.47656Z" fill="white"/>
<path d="M33.1909 4.85724C34.0851 4.85724 34.81 4.13236 34.81 3.23819C34.81 2.34401 34.0851 1.61914 33.1909 1.61914C32.2968 1.61914 31.5719 2.34401 31.5719 3.23819C31.5719 4.13236 32.2968 4.85724 33.1909 4.85724Z" fill="white"/>
<path d="M42.5007 5.86914C41.3957 5.87238 40.3522 6.37995 39.6674 7.24857V6.47628H36.4293V15.381H39.6674V9.71438C39.6674 8.82066 40.3927 8.09533 41.2864 8.09533C42.1801 8.09533 42.9055 8.82066 42.9055 9.71438V15.381H46.1435V9.512C46.1435 7.50033 44.5124 5.86914 42.5007 5.86914Z" fill="white"/>
<path d="M123.807 1.61914H111.765C111.29 1.61914 110.905 2.00383 110.905 2.47926V14.5209C110.905 14.9964 111.29 15.381 111.765 15.381H123.807C124.282 15.381 124.667 14.9963 124.667 14.5209V2.47926C124.667 2.00383 124.282 1.61914 123.807 1.61914ZM116.066 8.50009C116.066 8.50009 116.202 6.77985 117.786 6.77985C119.37 6.77985 119.506 8.50009 119.506 8.50009C119.506 8.50009 119.556 10.2203 117.786 10.2203C116.016 10.2203 116.066 8.50009 116.066 8.50009ZM122.947 13.6608H112.625V7.63997H114.346H114.467C114.396 7.91631 114.346 8.20107 114.346 8.50009C114.346 10.4001 115.886 11.9406 117.786 11.9406C119.686 11.9406 121.227 10.4001 121.227 8.50009C121.227 8.20107 121.176 7.91631 121.105 7.63997H121.227H122.947V13.6608ZM122.947 5.91974H120.367V3.33938H122.947V5.91974Z" fill="white"/>
<path d="M157.802 4.84033C156.599 4.84033 156.09 5.4315 155.251 5.4315C154.392 5.4315 153.736 4.84392 152.693 4.84392C151.672 4.84392 150.583 5.48524 149.892 6.57801C148.921 8.11862 149.085 11.0207 150.658 13.4929C151.221 14.3778 151.973 15.3702 152.958 15.381C152.966 15.381 152.969 15.381 152.976 15.381C153.833 15.381 154.087 14.8042 155.266 14.797C155.273 14.797 155.277 14.797 155.284 14.797C156.445 14.797 156.677 15.3774 157.53 15.3774C157.537 15.3774 157.541 15.3774 157.548 15.3774C158.533 15.3667 159.325 14.2667 159.888 13.3853C160.293 12.7512 160.443 12.4323 160.755 11.7157C158.48 10.8272 158.114 7.50947 160.364 6.23756C159.676 5.35268 158.712 4.84033 157.802 4.84033Z" fill="white"/>
<path d="M157.537 1.61914C156.821 1.6693 155.986 2.13865 155.495 2.75132C155.051 3.30665 154.685 4.1307 154.829 4.92968C154.847 4.92968 154.864 4.92968 154.886 4.92968C155.649 4.92968 156.43 4.45674 156.885 3.85124C157.326 3.27441 157.659 2.45752 157.537 1.61914Z" fill="white"/>
<rect x="18.6197" width="0.809524" height="17" fill="#C4C4C4"/>
<rect x="58.2866" width="0.809524" height="17" fill="#C4C4C4"/>
<rect x="97.9528" width="0.809524" height="17" fill="#C4C4C4"/>
<rect x="136.81" width="0.809524" height="17" fill="#C4C4C4"/>
<rect x="172.429" width="0.809524" height="17" fill="#C4C4C4"/>
<rect x="210.477" width="0.809524" height="17" fill="#C4C4C4"/>
<defs>
<clipPath id="clip0_1_1842">
<rect width="18.619" height="13.7619" fill="white" transform="translate(223.429 1.61914)"/>
</clipPath>
</defs>
</svg>
