<svg width="143" height="48" viewBox="0 0 143 48" fill="none" xmlns="http://www.w3.org/2000/svg">
<path d="M142.376 41.3869C142.793 41.0251 142.838 40.3936 142.477 39.9763L136.581 33.1763C136.219 32.759 135.587 32.714 135.17 33.0758C134.753 33.4376 134.708 34.0692 135.07 34.4865L140.31 40.5309L134.266 45.7716C133.849 46.1334 133.804 46.7649 134.165 47.1822C134.527 47.5995 135.159 47.6445 135.576 47.2827L142.376 41.3869ZM0.415598 3.32C23.0485 0.167234 34.8528 7.901 52.8743 17.474C70.9406 27.0708 94.9353 38.3016 141.65 41.6288L141.792 39.6339C95.4182 36.3309 71.6943 25.2065 53.8126 15.7077C35.8861 6.18524 23.513 -1.91679 0.139662 1.33913L0.415598 3.32Z" fill="black" fill-opacity="0.2"/>
</svg>
