<svg width="126" height="47" viewBox="0 0 126 47" fill="none" xmlns="http://www.w3.org/2000/svg">
<path d="M124.945 7.66597C125.291 7.23526 125.222 6.60586 124.791 6.26016L117.772 0.626614C117.342 0.280911 116.712 0.349821 116.366 0.780528C116.021 1.21123 116.09 1.84064 116.52 2.18634L122.759 7.19394L117.752 13.4328C117.406 13.8636 117.475 14.493 117.906 14.8387C118.336 15.1844 118.966 15.1155 119.311 14.6847L124.945 7.66597ZM1.00756 46.2188C37.0874 41.002 55.774 32.7552 71.5567 25.1463C87.2788 17.5666 99.9878 10.693 124.274 8.03408L124.056 6.04596C99.3909 8.74643 86.4022 15.7689 70.6882 23.3447C55.0347 30.8913 36.5468 39.0593 0.721355 44.2394L1.00756 46.2188Z" fill="black" fill-opacity="0.2"/>
</svg>
