<svg width="128" height="36" viewBox="0 0 128 36" fill="none" xmlns="http://www.w3.org/2000/svg">
<path d="M127.984 3.65511C128.083 3.11179 127.723 2.59098 127.18 2.49183L118.326 0.876146C117.783 0.776999 117.262 1.13707 117.163 1.68038C117.064 2.22369 117.424 2.74451 117.967 2.84365L125.837 4.27982L124.401 12.1499C124.302 12.6932 124.662 13.214 125.205 13.3131C125.749 13.4123 126.269 13.0522 126.369 12.5089L127.984 3.65511ZM1.60701 35.7956C8.79416 30.3137 16.7285 27.9492 25.515 26.9227C34.3464 25.8911 43.914 26.2183 54.4531 26.0594C75.483 25.7424 99.8369 23.4709 127.569 4.29815L126.432 2.65303C99.1642 21.5046 75.2681 23.7454 54.423 24.0596C44.0246 24.2164 34.2485 23.8889 25.283 24.9363C16.2726 25.9888 7.95694 28.437 0.394092 34.2053L1.60701 35.7956Z" fill="black" fill-opacity="0.2"/>
</svg>
