<svg width="136" height="48" viewBox="0 0 136 48" fill="none" xmlns="http://www.w3.org/2000/svg">
<path d="M135.141 41.2682C135.565 40.9146 135.622 40.2841 135.269 39.8598L129.507 32.9458C129.154 32.5215 128.523 32.4642 128.099 32.8178C127.674 33.1713 127.617 33.8019 127.971 34.2262L133.092 40.3719L126.946 45.4934C126.522 45.847 126.465 46.4776 126.818 46.9018C127.172 47.3261 127.803 47.3834 128.227 47.0299L135.141 41.2682ZM0.321635 3.42955C21.6101 1.00233 32.9093 8.341 50.1192 17.4998C67.3677 26.679 90.2467 37.481 134.41 41.4959L134.591 39.5041C90.7545 35.519 68.1334 24.8209 51.0588 15.7342C33.9457 6.627 22.0988 -1.06634 0.0950707 1.44242L0.321635 3.42955Z" fill="black" fill-opacity="0.2"/>
</svg>
