<svg width="134" height="54" viewBox="0 0 134 54" fill="none" xmlns="http://www.w3.org/2000/svg">
<path d="M133.117 7.83878C133.471 7.41452 133.414 6.78395 132.989 6.43037L126.076 0.668493C125.651 0.314913 125.021 0.372218 124.667 0.796482C124.314 1.22075 124.371 1.85132 124.795 2.20489L130.941 7.32657L125.819 13.4722C125.466 13.8964 125.523 14.527 125.947 14.8806C126.371 15.2342 127.002 15.1769 127.356 14.7526L133.117 7.83878ZM0.635045 53.9916C39.5484 48.719 59.422 38.4114 76.166 28.8307C92.8441 19.2877 106.258 10.5738 132.44 8.19447L132.259 6.20268C105.592 8.62606 91.8318 17.5627 75.1727 27.0948C58.5795 36.5893 38.953 46.7814 0.366509 52.0097L0.635045 53.9916Z" fill="black" fill-opacity="0.2"/>
</svg>
