<svg width="243" height="17" viewBox="0 0 243 17" fill="none" xmlns="http://www.w3.org/2000/svg">
<g clip-path="url(#clip0_82_902)">
<path d="M241.867 4.37644C241.754 3.04645 240.755 1.99464 239.494 1.88062C238.034 1.75283 235.872 1.61914 233.203 1.61914C229.989 1.61914 227.562 1.75774 225.994 1.8875C224.728 1.99464 223.72 3.05038 223.607 4.38627C223.511 5.45281 223.428 6.86144 223.428 8.54138C223.428 10.18 223.511 11.5641 223.606 12.6169C223.719 13.9508 224.727 15.0046 225.992 15.1117C227.561 15.2424 229.987 15.381 233.203 15.381C235.872 15.381 238.034 15.2474 239.494 15.1196C240.755 15.0055 241.754 13.9528 241.867 12.6237C241.963 11.5621 242.047 10.1623 242.047 8.50009C242.047 6.83687 241.963 5.43807 241.867 4.37644ZM230.667 11.3891V5.61108L236.064 8.50009L230.667 11.3891Z" fill="white"/>
</g>
<path d="M6.47619 6.07502H4.27044V4.6467C4.27044 4.11001 4.63047 3.98524 4.88404 3.98524C5.13704 3.98524 6.44071 3.98524 6.44071 3.98524V1.62712L4.29698 1.61914C1.91756 1.61914 1.37607 3.37791 1.37607 4.50341V6.07531H0V8.50522H1.37607C1.37607 11.6234 1.37607 15.381 1.37607 15.381H4.27044C4.27044 15.381 4.27044 11.5866 4.27044 8.50522H6.22377L6.47619 6.07502Z" fill="white"/>
<path d="M194.814 5.75682L187.406 1.79094C187.021 1.58473 186.604 1.57417 186.242 1.7059L192.554 8.01724L194.814 5.75682Z" fill="white"/>
<path d="M197.575 7.23542L195.441 6.09326L193.035 8.49986L195.441 10.9062L197.575 9.76402C198.585 9.22295 198.585 7.77593 197.575 7.23542Z" fill="white"/>
<path d="M185.664 2.09326C185.437 2.34198 185.295 2.67407 185.295 3.05479V13.9451C185.295 14.3255 185.438 14.6573 185.664 14.9066L192.071 8.5002L185.664 2.09326Z" fill="white"/>
<path d="M186.242 15.294C186.603 15.426 187.021 15.4158 187.406 15.209L194.814 11.2431L192.554 8.98242L186.242 15.294Z" fill="white"/>
<path d="M85.8087 3.15241C85.2433 3.41286 84.6347 3.58854 83.9962 3.66717C84.6482 3.26274 85.148 2.62212 85.3838 1.85792C84.774 2.2329 84.099 2.505 83.3799 2.65189C82.8042 2.01645 81.984 1.61914 81.0767 1.61914C79.3342 1.61914 77.9214 3.08317 77.9214 4.88919C77.9214 5.14511 77.9491 5.39456 78.0032 5.6343C75.3808 5.49777 73.0551 4.19616 71.4987 2.21737C71.227 2.7001 71.0718 3.26209 71.0718 3.86161C71.0718 4.99628 71.6285 5.99732 72.4753 6.58325C71.9586 6.56611 71.4715 6.41889 71.0462 6.17397C71.0459 6.18756 71.0459 6.20147 71.0459 6.21539C71.0459 7.79945 72.1334 9.1208 73.5771 9.42169C73.3123 9.49579 73.0335 9.53623 72.7457 9.53623C72.5424 9.53623 72.3445 9.51584 72.1521 9.47734C72.5536 10.7764 73.7192 11.7221 75.0995 11.7483C74.0195 12.6254 72.6595 13.1483 71.1805 13.1483C70.926 13.1483 70.6747 13.1327 70.4277 13.1023C71.8246 14.0306 73.4831 14.5715 75.265 14.5715C81.0695 14.5715 84.2432 9.58897 84.2432 5.26773C84.2432 5.12602 84.2404 4.98463 84.2345 4.84389C84.8508 4.38446 85.3859 3.80823 85.8087 3.15241Z" fill="white"/>
<path d="M34.8104 6.47656H31.5723V15.3813H34.8104V6.47656Z" fill="white"/>
<path d="M33.1913 4.85724C34.0855 4.85724 34.8104 4.13236 34.8104 3.23819C34.8104 2.34401 34.0855 1.61914 33.1913 1.61914C32.2971 1.61914 31.5723 2.34401 31.5723 3.23819C31.5723 4.13236 32.2971 4.85724 33.1913 4.85724Z" fill="white"/>
<path d="M42.5011 5.86914C41.3961 5.87238 40.3526 6.37995 39.6678 7.24857V6.47628H36.4297V15.381H39.6678V9.71438C39.6678 8.82066 40.3931 8.09533 41.2868 8.09533C42.1805 8.09533 42.9059 8.82066 42.9059 9.71438V15.381H46.144V9.512C46.144 7.50033 44.5128 5.86914 42.5011 5.86914Z" fill="white"/>
<path d="M123.806 1.61914H111.764C111.289 1.61914 110.904 2.00383 110.904 2.47926V14.5209C110.904 14.9964 111.289 15.381 111.764 15.381H123.806C124.282 15.381 124.666 14.9963 124.666 14.5209V2.47926C124.666 2.00383 124.282 1.61914 123.806 1.61914ZM116.065 8.50009C116.065 8.50009 116.201 6.77985 117.785 6.77985C119.369 6.77985 119.505 8.50009 119.505 8.50009C119.505 8.50009 119.555 10.2203 117.785 10.2203C116.015 10.2203 116.065 8.50009 116.065 8.50009ZM122.946 13.6608H112.625V7.63997H114.345H114.467C114.395 7.91631 114.345 8.20107 114.345 8.50009C114.345 10.4001 115.885 11.9406 117.785 11.9406C119.685 11.9406 121.226 10.4001 121.226 8.50009C121.226 8.20107 121.175 7.91631 121.104 7.63997H121.226H122.946V13.6608ZM122.946 5.91974H120.366V3.33938H122.946V5.91974Z" fill="white"/>
<path d="M157.803 4.84033C156.599 4.84033 156.09 5.4315 155.252 5.4315C154.392 5.4315 153.736 4.84392 152.694 4.84392C151.672 4.84392 150.583 5.48524 149.892 6.57801C148.921 8.11862 149.086 11.0207 150.659 13.4929C151.221 14.3778 151.973 15.3702 152.959 15.381C152.966 15.381 152.969 15.381 152.977 15.381C153.833 15.381 154.087 14.8042 155.266 14.797C155.273 14.797 155.277 14.797 155.284 14.797C156.445 14.797 156.678 15.3774 157.53 15.3774C157.538 15.3774 157.541 15.3774 157.548 15.3774C158.534 15.3667 159.325 14.2667 159.888 13.3853C160.293 12.7512 160.443 12.4323 160.755 11.7157C158.48 10.8272 158.114 7.50947 160.364 6.23756C159.676 5.35268 158.713 4.84033 157.803 4.84033Z" fill="white"/>
<path d="M157.537 1.61914C156.821 1.6693 155.986 2.13865 155.495 2.75132C155.051 3.30665 154.685 4.1307 154.828 4.92968C154.846 4.92968 154.864 4.92968 154.886 4.92968C155.649 4.92968 156.43 4.45674 156.885 3.85124C157.326 3.27441 157.659 2.45752 157.537 1.61914Z" fill="white"/>
<rect x="18.6191" width="0.809524" height="17" fill="#C4C4C4"/>
<rect x="58.2852" width="0.809524" height="17" fill="#C4C4C4"/>
<rect x="97.9531" width="0.809524" height="17" fill="#C4C4C4"/>
<rect x="136.809" width="0.809524" height="17" fill="#C4C4C4"/>
<rect x="172.428" width="0.809524" height="17" fill="#C4C4C4"/>
<rect x="210.477" width="0.809524" height="17" fill="#C4C4C4"/>
<defs>
<clipPath id="clip0_82_902">
<rect width="18.619" height="13.7619" fill="white" transform="translate(223.428 1.61914)"/>
</clipPath>
</defs>
</svg>
